<svg width="237" height="476" viewBox="0 0 237 476" fill="none" xmlns="http://www.w3.org/2000/svg">
<path d="M236.736 113.115H234.127V41.4677C234.127 30.4698 229.77 19.9224 222.013 12.1456C214.256 4.36893 203.736 1.38772e-05 192.766 1.32057e-10H41.3612C35.9296 -1.37424e-05 30.5511 1.07257 25.533 3.1565C20.5148 5.24044 15.9552 8.29491 12.1144 12.1455C8.2737 15.9962 5.22706 20.5675 3.14846 25.5986C1.06986 30.6297 1.19938e-05 36.022 0 41.4676V434.532C-5.14016e-06 439.978 1.06981 445.37 3.1484 450.401C5.22699 455.432 8.27363 460.004 12.1144 463.854C15.9551 467.705 20.5147 470.76 25.5329 472.843C30.551 474.927 35.9294 476 41.3611 476H192.766C203.736 476 214.256 471.631 222.013 463.854C229.769 456.078 234.127 445.53 234.127 434.532V164.115H236.736V113.115Z" fill="#E6E6E6"/>
<path d="M194.434 10.7885H174.671C175.58 13.0225 175.927 15.4463 175.681 17.8464C175.436 20.2464 174.605 22.5492 173.263 24.5516C171.92 26.5541 170.107 28.1949 167.984 29.3295C165.86 30.464 163.49 31.0575 161.084 31.0577H74.346C71.9396 31.0575 69.57 30.464 67.4462 29.3295C65.3224 28.1949 63.5095 26.5541 62.1672 24.5516C60.8249 22.5491 59.9944 20.2464 59.7489 17.8463C59.5033 15.4462 59.8503 13.0224 60.7591 10.7885H42.3001C34.1081 10.7884 26.2516 14.0511 20.459 19.8586C14.6664 25.6662 11.4121 33.5429 11.4121 41.756V434.244C11.4121 442.457 14.6664 450.334 20.459 456.141C26.2516 461.949 34.1081 465.212 42.3001 465.212H194.434C198.49 465.212 202.507 464.411 206.255 462.854C210.002 461.298 213.407 459.017 216.275 456.141C219.144 453.266 221.419 449.852 222.971 446.095C224.523 442.338 225.322 438.311 225.322 434.244V41.7561C225.322 37.6893 224.523 33.6624 222.971 29.9053C221.419 26.1481 219.144 22.7343 216.275 19.8587C213.407 16.9831 210.002 14.702 206.255 13.1458C202.507 11.5895 198.49 10.7885 194.434 10.7885Z" fill="white"/>
<path d="M212.768 319.056H30.3545C29.4589 319.055 28.6004 318.697 27.9671 318.063C27.3338 317.428 26.9776 316.567 26.9766 315.669V270.304C26.9776 269.406 27.3338 268.545 27.9671 267.91C28.6004 267.275 29.4589 266.918 30.3545 266.917H212.768C213.663 266.918 214.522 267.275 215.155 267.91C215.789 268.545 216.145 269.406 216.146 270.304V315.67C216.145 316.567 215.788 317.428 215.155 318.063C214.522 318.698 213.663 319.055 212.768 319.056ZM30.3545 268.272C29.8171 268.272 29.3019 268.486 28.9218 268.867C28.5418 269.248 28.3281 269.765 28.3276 270.304V315.67C28.3281 316.208 28.5418 316.725 28.9218 317.106C29.3019 317.487 29.8171 317.701 30.3545 317.702H212.768C213.305 317.701 213.82 317.487 214.2 317.106C214.58 316.725 214.794 316.208 214.795 315.67V270.304C214.794 269.765 214.58 269.248 214.2 268.867C213.82 268.486 213.305 268.272 212.768 268.272H30.3545Z" fill="#E6E6E6"/>
<path d="M54.0021 307.21C61.8377 307.21 68.1897 300.842 68.1897 292.986C68.1897 285.13 61.8377 278.762 54.0021 278.762C46.1665 278.762 39.8145 285.13 39.8145 292.986C39.8145 300.842 46.1665 307.21 54.0021 307.21Z" fill="#E6E6E6"/>
<path d="M86.7689 283.504C86.1486 283.514 85.5572 283.768 85.1222 284.212C84.6872 284.655 84.4434 285.252 84.4434 285.874C84.4434 286.496 84.6872 287.094 85.1222 287.537C85.5572 287.98 86.1486 288.235 86.7689 288.245H198.244C198.871 288.257 199.477 288.019 199.929 287.583C200.381 287.147 200.641 286.549 200.654 285.92C200.666 285.292 200.428 284.684 199.993 284.231C199.558 283.778 198.962 283.516 198.335 283.504L198.321 283.504C198.295 283.503 198.269 283.503 198.244 283.504H86.7689Z" fill="#E6E6E6"/>
<path d="M86.7689 297.728C86.1486 297.738 85.5572 297.993 85.1222 298.436C84.6872 298.88 84.4434 299.477 84.4434 300.099C84.4434 300.721 84.6872 301.318 85.1222 301.761C85.5572 302.205 86.1486 302.459 86.7689 302.469H198.244C198.87 302.478 199.474 302.237 199.923 301.8C200.372 301.363 200.631 300.765 200.641 300.137C200.651 299.51 200.413 298.904 199.978 298.452C199.543 298 198.947 297.74 198.321 297.728C198.295 297.728 198.269 297.728 198.244 297.728H86.7689Z" fill="#E6E6E6"/>
<path d="M212.768 394.918H30.3545C29.4589 394.917 28.6004 394.56 27.9671 393.925C27.3338 393.29 26.9776 392.43 26.9766 391.532V346.166C26.9776 345.269 27.3338 344.408 27.9671 343.773C28.6004 343.138 29.4589 342.781 30.3545 342.78H212.768C213.663 342.781 214.522 343.138 215.155 343.773C215.789 344.408 216.145 345.269 216.146 346.166V391.532C216.145 392.43 215.788 393.291 215.155 393.925C214.522 394.56 213.663 394.917 212.768 394.918ZM30.3545 344.134C29.8171 344.135 29.3019 344.349 28.9218 344.73C28.5418 345.111 28.3281 345.628 28.3276 346.166V391.532C28.3281 392.071 28.5418 392.588 28.9218 392.969C29.3019 393.35 29.8171 393.564 30.3545 393.564H212.768C213.305 393.564 213.82 393.35 214.2 392.969C214.58 392.588 214.794 392.071 214.795 391.532V346.166C214.794 345.628 214.58 345.111 214.2 344.73C213.82 344.349 213.305 344.135 212.768 344.134H30.3545Z" fill="#E6E6E6"/>
<path d="M54.0021 383.073C61.8377 383.073 68.1897 376.705 68.1897 368.849C68.1897 360.993 61.8377 354.625 54.0021 354.625C46.1665 354.625 39.8145 360.993 39.8145 368.849C39.8145 376.705 46.1665 383.073 54.0021 383.073Z" fill="#E6E6E6"/>
<path d="M86.7689 359.367C86.1486 359.377 85.5572 359.631 85.1222 360.075C84.6872 360.518 84.4434 361.115 84.4434 361.737C84.4434 362.359 84.6872 362.956 85.1222 363.4C85.5572 363.843 86.1486 364.097 86.7689 364.108H198.244C198.87 364.116 199.474 363.876 199.923 363.439C200.372 363.002 200.631 362.404 200.641 361.776C200.651 361.148 200.413 360.542 199.978 360.09C199.543 359.639 198.947 359.378 198.321 359.367C198.295 359.366 198.269 359.366 198.244 359.367H86.7689Z" fill="#E6E6E6"/>
<path d="M86.7689 373.591C86.1486 373.601 85.5572 373.856 85.1222 374.299C84.6872 374.742 84.4434 375.339 84.4434 375.961C84.4434 376.583 84.6872 377.181 85.1222 377.624C85.5572 378.067 86.1486 378.322 86.7689 378.332H198.244C198.87 378.341 199.474 378.1 199.923 377.663C200.372 377.226 200.631 376.628 200.641 376C200.651 375.373 200.413 374.766 199.978 374.315C199.543 373.863 198.947 373.603 198.321 373.591C198.295 373.59 198.269 373.59 198.244 373.591H86.7689Z" fill="#E6E6E6"/>
<path d="M117.723 224.916C100.708 224.923 84.3871 218.153 72.3506 206.096C60.3141 194.038 53.5481 177.681 53.541 160.622V160.568C53.541 160.433 53.541 160.292 53.5488 160.157C53.7445 124.917 82.5347 96.2199 117.723 96.2199C134.745 96.218 151.071 102.996 163.109 115.062C175.147 127.128 181.911 143.494 181.913 160.56C181.915 177.626 175.154 193.994 163.119 206.063C151.084 218.132 134.76 224.913 117.738 224.915H117.723V224.916ZM117.723 97.5731C101.135 97.6103 85.2318 104.209 73.4686 115.935C61.7055 127.661 55.0328 143.567 54.9005 160.197C54.8934 160.341 54.8934 160.459 54.8934 160.566C54.8918 173.027 58.5757 185.208 65.4793 195.569C72.3828 205.93 82.1959 214.007 93.6777 218.776C105.159 223.546 117.794 224.795 129.984 222.366C142.174 219.937 153.371 213.938 162.161 205.128C170.95 196.318 176.936 185.093 179.362 172.873C181.788 160.652 180.546 147.984 175.791 136.472C171.036 124.959 162.983 115.119 152.65 108.195C142.317 101.271 130.168 97.5747 117.74 97.5731H117.723Z" fill="#E6E6E6"/>
<path d="M205.567 302.72C219.979 302.72 231.662 291.007 231.662 276.558C231.662 262.109 219.979 250.396 205.567 250.396C191.156 250.396 179.473 262.109 179.473 276.558C179.473 291.007 191.156 302.72 205.567 302.72Z" fill="white"/>
<path d="M196.506 288.328C196.461 288.328 196.416 288.328 196.371 288.327H182.346C180.566 288.299 178.869 287.57 177.62 286.299C176.371 285.027 175.671 283.314 175.67 281.53C175.669 279.745 176.368 278.032 177.616 276.76C178.864 275.487 180.561 274.757 182.34 274.728H196.378C196.447 274.726 196.521 274.726 196.596 274.728C198.386 274.752 200.094 275.486 201.347 276.768C202.6 278.05 203.297 279.777 203.285 281.572C203.273 283.368 202.554 285.085 201.284 286.351C200.014 287.616 198.296 288.327 196.506 288.328Z" fill="#2579F1"/>
<path d="M216.659 301.38C215.967 301.38 215.304 301.105 214.814 300.614C214.325 300.124 214.05 299.458 214.05 298.764V265.439H181.432C180.74 265.439 180.076 265.163 179.587 264.673C179.097 264.182 178.822 263.517 178.822 262.823C178.822 262.129 179.097 261.463 179.587 260.973C180.076 260.482 180.74 260.207 181.432 260.207H216.659C217.351 260.207 218.015 260.482 218.505 260.973C218.994 261.463 219.269 262.129 219.269 262.823V298.764C219.269 299.458 218.994 300.124 218.505 300.614C218.015 301.105 217.351 301.38 216.659 301.38Z" fill="#2579F1"/>
</svg>
