<svg width="363" height="155" viewBox="0 0 363 155" fill="none" xmlns="http://www.w3.org/2000/svg">
<g clip-path="url(#clip0_281_7735)">
<mask id="mask0_281_7735" style="mask-type:luminance" maskUnits="userSpaceOnUse" x="0" y="0" width="363" height="155">
<path d="M363 0H0V155H363V0Z" fill="white"/>
</mask>
<g mask="url(#mask0_281_7735)">
<path d="M363 0H0V155H363V0Z" fill="white"/>
<path fill-rule="evenodd" clip-rule="evenodd" d="M165.87 28.292C165.011 28.4581 164.124 28.545 163.216 28.545C155.566 28.545 149.364 22.3639 149.364 14.7391C149.364 7.11432 155.566 0.933197 163.216 0.933197C170.866 0.933197 177.068 7.11432 177.068 14.7391C177.068 15.6905 176.971 16.6194 176.787 17.5166C176.665 18.2985 176.601 19.1 176.601 19.9162C176.601 24.3838 178.509 28.4071 181.558 31.2207V33.0191H180.135C177.31 29.95 173.252 28.0261 168.744 28.0261C167.762 28.0261 166.801 28.1174 165.87 28.292ZM170.336 14.8682C170.336 18.7162 167.206 21.8357 163.345 21.8357C159.484 21.8357 156.355 18.7162 156.355 14.8682C156.355 11.0202 159.484 7.90071 163.345 7.90071C167.206 7.90071 170.336 11.0202 170.336 14.8682Z" fill="#F9AD2D"/>
<path fill-rule="evenodd" clip-rule="evenodd" d="M197.234 28.2899C198.096 28.4573 198.987 28.545 199.899 28.545C207.549 28.545 213.751 22.3639 213.751 14.7391C213.751 7.11432 207.549 0.933197 199.899 0.933197C192.249 0.933197 186.047 7.11432 186.047 14.7391C186.047 15.6913 186.143 16.621 186.327 17.5189C186.45 18.3001 186.514 19.1008 186.514 19.9162C186.514 24.3837 184.606 28.407 181.557 31.2206V33.0191H182.98C185.805 29.95 189.862 28.026 194.371 28.026C195.349 28.026 196.306 28.1166 197.234 28.2899ZM192.779 14.8682C192.779 18.7162 195.908 21.8357 199.769 21.8357C203.63 21.8357 206.76 18.7162 206.76 14.8682C206.76 11.0202 203.63 7.90071 199.769 7.90071C195.908 7.90071 192.779 11.0202 192.779 14.8682Z" fill="#00A34B"/>
<path fill-rule="evenodd" clip-rule="evenodd" d="M165.873 37.7471C165.013 37.5807 164.125 37.4934 163.216 37.4934C155.566 37.4934 149.364 43.6745 149.364 51.2995C149.364 58.924 155.566 65.1052 163.216 65.1052C170.866 65.1052 177.068 58.924 177.068 51.2995C177.068 50.348 176.971 49.4191 176.788 48.522C176.665 47.74 176.601 46.9384 176.601 46.1219C176.601 41.6547 178.509 37.6313 181.558 34.8176V33.0191H180.135C177.31 36.0883 173.252 38.0124 168.744 38.0124C167.763 38.0124 166.803 37.9214 165.873 37.7471ZM170.336 51.1703C170.336 47.322 167.206 44.2027 163.345 44.2027C159.484 44.2027 156.355 47.322 156.355 51.1703C156.355 55.0183 159.484 58.1376 163.345 58.1376C167.206 58.1376 170.336 55.0183 170.336 51.1703Z" fill="#FF0F1C"/>
<path fill-rule="evenodd" clip-rule="evenodd" d="M197.235 37.7482C198.097 37.581 198.987 37.4934 199.899 37.4934C207.549 37.4934 213.751 43.6745 213.751 51.2995C213.751 58.924 207.549 65.1052 199.899 65.1052C192.249 65.1052 186.047 58.924 186.047 51.2995C186.047 50.3473 186.143 49.4176 186.327 48.5198C186.45 47.7385 186.514 46.9376 186.514 46.1219C186.514 41.6547 184.606 37.6313 181.557 34.8176V33.0191H182.979C185.805 36.0883 189.862 38.0124 194.371 38.0124C195.35 38.0124 196.307 37.9217 197.235 37.7482ZM192.779 51.1703C192.779 47.322 195.908 44.2027 199.769 44.2027C203.63 44.2027 206.76 47.322 206.76 51.1703C206.76 55.0183 203.63 58.1376 199.769 58.1376C195.908 58.1376 192.779 55.0183 192.779 51.1703Z" fill="#2E7AEB"/>
<path d="M181.557 11.2493C184.674 11.2493 187.2 8.73106 187.2 5.62465C187.2 2.51824 184.674 0 181.557 0C178.44 0 175.914 2.51824 175.914 5.62465C175.914 8.73106 178.44 11.2493 181.557 11.2493Z" fill="#FF0F1C"/>
<path d="M181.557 66.1279C184.674 66.1279 187.2 63.6097 187.2 60.5033C187.2 57.3969 184.674 54.8786 181.557 54.8786C178.44 54.8786 175.914 57.3969 175.914 60.5033C175.914 63.6097 178.44 66.1279 181.557 66.1279Z" fill="#00A34B"/>
<path d="M154.11 38.7716C157.227 38.7716 159.753 36.2534 159.753 33.147C159.753 30.0406 157.227 27.5223 154.11 27.5223C150.993 27.5223 148.466 30.0406 148.466 33.147C148.466 36.2534 150.993 38.7716 154.11 38.7716Z" fill="#2E7AEB"/>
<path d="M209.261 38.7716C212.378 38.7716 214.905 36.2534 214.905 33.147C214.905 30.0406 212.378 27.5223 209.261 27.5223C206.144 27.5223 203.618 30.0406 203.618 33.147C203.618 36.2534 206.144 38.7716 209.261 38.7716Z" fill="#F9AD2D"/>
<path fill-rule="evenodd" clip-rule="evenodd" d="M165.87 28.292C165.011 28.4581 164.124 28.5451 163.216 28.5451C155.566 28.5451 149.364 22.3639 149.364 14.7392C149.364 7.11435 155.566 0.933228 163.216 0.933228C170.866 0.933228 177.068 7.11435 177.068 14.7392C177.068 15.6905 176.971 16.6194 176.787 17.5166C176.665 18.2986 176.601 19.1 176.601 19.9163C176.601 24.3838 178.509 28.4071 181.558 31.2208V33.0192H180.135C177.31 29.9501 173.252 28.0261 168.744 28.0261C167.762 28.0261 166.801 28.1174 165.87 28.292ZM170.336 14.8682C170.336 18.7163 167.206 21.8357 163.345 21.8357C159.484 21.8357 156.355 18.7163 156.355 14.8682C156.355 11.0202 159.484 7.90074 163.345 7.90074C167.206 7.90074 170.336 11.0202 170.336 14.8682Z" fill="#F9AD2D"/>
<path fill-rule="evenodd" clip-rule="evenodd" d="M197.234 28.2899C198.096 28.4573 198.987 28.5451 199.899 28.5451C207.549 28.5451 213.751 22.3639 213.751 14.7392C213.751 7.11435 207.549 0.933228 199.899 0.933228C192.249 0.933228 186.047 7.11435 186.047 14.7392C186.047 15.6913 186.143 16.621 186.327 17.5189C186.45 18.3001 186.514 19.1008 186.514 19.9163C186.514 24.3838 184.606 28.407 181.557 31.2207V33.0192H182.98C185.805 29.9501 189.862 28.0261 194.371 28.0261C195.349 28.0261 196.306 28.1167 197.234 28.2899ZM192.779 14.8682C192.779 18.7163 195.908 21.8357 199.769 21.8357C203.63 21.8357 206.76 18.7163 206.76 14.8682C206.76 11.0202 203.63 7.90074 199.769 7.90074C195.908 7.90074 192.779 11.0202 192.779 14.8682Z" fill="#00A34B"/>
<path fill-rule="evenodd" clip-rule="evenodd" d="M165.873 37.7471C165.013 37.5807 164.125 37.4934 163.216 37.4934C155.566 37.4934 149.364 43.6745 149.364 51.2995C149.364 58.924 155.566 65.1052 163.216 65.1052C170.866 65.1052 177.068 58.924 177.068 51.2995C177.068 50.348 176.971 49.4191 176.788 48.522C176.665 47.74 176.601 46.9384 176.601 46.1219C176.601 41.6547 178.509 37.6313 181.558 34.8176V33.0191H180.135C177.31 36.0883 173.252 38.0124 168.744 38.0124C167.763 38.0124 166.803 37.9214 165.873 37.7471ZM170.336 51.1703C170.336 47.322 167.206 44.2027 163.345 44.2027C159.484 44.2027 156.355 47.322 156.355 51.1703C156.355 55.0183 159.484 58.1376 163.345 58.1376C167.206 58.1376 170.336 55.0183 170.336 51.1703Z" fill="#FF0F1C"/>
<path d="M181.557 11.2493C184.674 11.2493 187.2 8.73106 187.2 5.62465C187.2 2.51824 184.674 0 181.557 0C178.44 0 175.914 2.51824 175.914 5.62465C175.914 8.73106 178.44 11.2493 181.557 11.2493Z" fill="#FF0F1C"/>
<path d="M181.557 66.1279C184.674 66.1279 187.2 63.6097 187.2 60.5033C187.2 57.3969 184.674 54.8786 181.557 54.8786C178.44 54.8786 175.914 57.3969 175.914 60.5033C175.914 63.6097 178.44 66.1279 181.557 66.1279Z" fill="#00A34B"/>
<path d="M154.11 38.7716C157.227 38.7716 159.753 36.2534 159.753 33.147C159.753 30.0406 157.227 27.5223 154.11 27.5223C150.993 27.5223 148.466 30.0406 148.466 33.147C148.466 36.2534 150.993 38.7716 154.11 38.7716Z" fill="#2E7AEB"/>
<path d="M209.261 38.7716C212.378 38.7716 214.905 36.2534 214.905 33.147C214.905 30.0406 212.378 27.5223 209.261 27.5223C206.144 27.5223 203.618 30.0406 203.618 33.147C203.618 36.2534 206.144 38.7716 209.261 38.7716Z" fill="#F9AD2D"/>
<path d="M38.8662 113.198V86.3413H44.7047V113.198H38.8662ZM21.1875 113.198V86.3413H27.0668V113.198H21.1875ZM24.6579 102.008V97.2061H41.1934V102.008H24.6579ZM50.4065 113.198V91.8347H56.2858V113.198H50.4065ZM53.387 88.6201C52.2438 88.6201 51.3593 88.3896 50.7331 87.9283C50.1345 87.44 49.8349 86.7345 49.8349 85.8123C49.8349 84.8627 50.1345 84.1439 50.7331 83.6556C51.3593 83.1673 52.2438 82.9232 53.387 82.9232C54.5573 82.9232 55.4421 83.1673 56.0408 83.6556C56.667 84.1439 56.9799 84.8627 56.9799 85.8123C56.9799 86.7075 56.667 87.3993 56.0408 87.8876C55.4421 88.3759 54.5573 88.6201 53.387 88.6201ZM61.73 113.198V100.258V91.8347H66.5478L66.5069 98.2234H67.3235C67.6772 96.6771 68.1809 95.3886 68.8341 94.3576C69.4874 93.3267 70.304 92.5535 71.2838 92.0382C72.2908 91.5229 73.4748 91.265 74.8359 91.265C77.3127 91.265 79.1908 92.1333 80.4702 93.8693C81.7767 95.6054 82.4299 98.3318 82.4299 102.048V113.198H76.5099V102.7C76.5099 100.421 76.1695 98.7661 75.4891 97.7351C74.8359 96.6771 73.8694 96.1481 72.5903 96.1481C71.5013 96.1481 70.5898 96.4873 69.8549 97.1654C69.1199 97.8435 68.5617 98.7387 68.1809 99.8511C67.8268 100.936 67.6364 102.157 67.6093 103.513V113.198H61.73ZM95.2849 113.768C93.4884 113.768 91.9099 113.306 90.5488 112.384C89.2152 111.462 88.1808 110.16 87.4459 108.478C86.711 106.796 86.3435 104.802 86.3435 102.496C86.3435 100.326 86.6701 98.3999 87.3234 96.7178C87.9766 95.0357 88.9432 93.7203 90.2222 92.7706C91.5016 91.821 93.0939 91.3464 94.9991 91.3464C96.3873 91.3464 97.5579 91.6043 98.5103 92.1196C99.4631 92.6349 100.239 93.3947 100.838 94.3983C101.464 95.3749 101.954 96.555 102.307 97.9385H103.246C103.056 97.0703 102.879 96.2295 102.716 95.4156C102.58 94.5748 102.471 93.7743 102.389 93.0148C102.307 92.2553 102.267 91.5906 102.267 91.0209V84.1032H108.146V102.7V113.198H103.246V107.013H102.43C102.131 108.532 101.668 109.794 101.042 110.797C100.416 111.801 99.6127 112.547 98.6328 113.035C97.6804 113.524 96.5643 113.768 95.2849 113.768ZM97.2446 108.966C98.1429 108.966 98.9052 108.776 99.531 108.396C100.157 108.017 100.674 107.528 101.083 106.932C101.491 106.307 101.79 105.643 101.981 104.938C102.172 104.205 102.267 103.527 102.267 102.903V102.13C102.267 101.615 102.185 101.086 102.022 100.543C101.886 99.9732 101.682 99.4172 101.409 98.8745C101.137 98.3318 100.797 97.8572 100.388 97.4502C99.9801 97.0163 99.5039 96.6771 98.9594 96.4329C98.4153 96.1888 97.8162 96.0667 97.163 96.0667C96.1831 96.0667 95.3532 96.3379 94.6725 96.8806C93.9921 97.4232 93.4614 98.1827 93.0802 99.1593C92.6994 100.109 92.5086 101.221 92.5086 102.496C92.5086 103.798 92.6994 104.938 93.0802 105.914C93.4884 106.891 94.0467 107.65 94.7541 108.193C95.4619 108.708 96.2922 108.966 97.2446 108.966ZM118.584 113.768C117.387 113.768 116.325 113.537 115.4 113.076C114.475 112.588 113.753 111.896 113.236 111.001C112.719 110.105 112.46 108.993 112.46 107.664C112.46 106.498 112.678 105.521 113.113 104.734C113.576 103.947 114.243 103.31 115.114 102.822C115.985 102.333 117.06 101.926 118.339 101.601C119.619 101.275 121.075 100.99 122.708 100.746C123.579 100.611 124.287 100.488 124.831 100.38C125.403 100.244 125.825 100.041 126.097 99.7697C126.369 99.4712 126.505 99.0509 126.505 98.5082C126.505 97.7488 126.233 97.0977 125.689 96.555C125.144 96.0123 124.287 95.7412 123.116 95.7412C122.327 95.7412 121.592 95.8769 120.912 96.1481C120.258 96.4193 119.687 96.8262 119.197 97.3689C118.734 97.9115 118.394 98.6033 118.176 99.4442L112.991 97.8572C113.318 96.7448 113.78 95.7819 114.379 94.968C115.005 94.1542 115.754 93.4761 116.625 92.9334C117.496 92.3637 118.489 91.9431 119.605 91.672C120.721 91.4008 121.932 91.265 123.239 91.265C125.335 91.265 127.036 91.6043 128.342 92.2823C129.676 92.9334 130.67 93.9644 131.323 95.3749C131.976 96.7585 132.303 98.5489 132.303 100.746V104.409C132.303 105.358 132.316 106.321 132.344 107.298C132.398 108.274 132.452 109.265 132.507 110.268C132.589 111.245 132.67 112.221 132.752 113.198H127.567C127.458 112.52 127.349 111.747 127.24 110.879C127.158 109.983 127.09 109.088 127.036 108.193H126.301C125.92 109.224 125.376 110.16 124.668 111.001C123.96 111.842 123.089 112.52 122.055 113.035C121.048 113.524 119.891 113.768 118.584 113.768ZM121.075 109.536C121.592 109.536 122.109 109.441 122.626 109.251C123.171 109.061 123.688 108.803 124.178 108.478C124.695 108.125 125.158 107.691 125.566 107.176C126.001 106.66 126.356 106.077 126.628 105.426L126.546 102.008L127.485 102.211C126.995 102.564 126.423 102.849 125.77 103.066C125.117 103.256 124.437 103.405 123.729 103.513C123.048 103.622 122.368 103.744 121.687 103.88C121.007 104.015 120.395 104.191 119.85 104.409C119.333 104.626 118.911 104.924 118.584 105.304C118.285 105.656 118.135 106.158 118.135 106.809C118.135 107.65 118.407 108.315 118.952 108.803C119.496 109.292 120.204 109.536 121.075 109.536ZM141.707 113.198L134.562 91.8754H141.054L145.586 108.559H146.239L150.771 91.8754H157.018L149.832 113.198H141.707ZM160.172 113.198V91.8347H166.051V113.198H160.172ZM163.153 88.6201C162.009 88.6201 161.125 88.3896 160.499 87.9283C159.9 87.44 159.6 86.7345 159.6 85.8123C159.6 84.8627 159.9 84.1439 160.499 83.6556C161.125 83.1673 162.009 82.9232 163.153 82.9232C164.323 82.9232 165.208 83.1673 165.806 83.6556C166.433 84.1439 166.745 84.8627 166.745 85.8123C166.745 86.7075 166.433 87.3993 165.806 87.8876C165.208 88.3759 164.323 88.6201 163.153 88.6201Z" fill="#FF0F1C"/>
<path d="M178.946 113.198L188.173 86.3413H196.747L205.974 113.198H199.605L192.787 90.9802H192.174L185.315 113.198H178.946ZM184.131 107.908V103.92H201.646V107.908H184.131ZM216.653 113.768C214.857 113.768 213.278 113.306 211.917 112.384C210.584 111.462 209.549 110.16 208.814 108.478C208.079 106.796 207.712 104.802 207.712 102.496C207.712 100.326 208.039 98.3998 208.692 96.7178C209.345 95.0357 210.312 93.7202 211.591 92.7706C212.87 91.821 214.462 91.3464 216.367 91.3464C217.756 91.3464 218.926 91.6042 219.879 92.1196C220.831 92.6349 221.607 93.3947 222.206 94.3983C222.832 95.3749 223.322 96.555 223.676 97.9385H224.615C224.424 97.0703 224.247 96.2295 224.084 95.4156C223.948 94.5748 223.839 93.7742 223.757 93.0148C223.676 92.2553 223.635 91.5906 223.635 91.0209V84.1032H229.514V102.7V113.198H224.615V107.013H223.798C223.499 108.532 223.036 109.794 222.41 110.797C221.784 111.801 220.981 112.547 220.001 113.035C219.049 113.524 217.933 113.768 216.653 113.768ZM218.613 108.966C219.511 108.966 220.274 108.776 220.899 108.396C221.526 108.016 222.043 107.528 222.451 106.931C222.859 106.307 223.159 105.643 223.349 104.938C223.54 104.205 223.635 103.527 223.635 102.903V102.13C223.635 101.615 223.553 101.086 223.39 100.543C223.254 99.9731 223.05 99.4171 222.777 98.8744C222.505 98.3318 222.165 97.8571 221.757 97.4502C221.349 97.0163 220.872 96.6771 220.328 96.4329C219.784 96.1888 219.185 96.0667 218.531 96.0667C217.551 96.0667 216.722 96.3379 216.041 96.8805C215.36 97.4232 214.83 98.1827 214.449 99.1593C214.068 100.109 213.877 101.221 213.877 102.496C213.877 103.798 214.068 104.938 214.449 105.914C214.857 106.891 215.415 107.65 216.123 108.193C216.83 108.708 217.661 108.966 218.613 108.966ZM243.505 113.768C242.063 113.768 240.756 113.632 239.585 113.361C238.415 113.09 237.408 112.696 236.564 112.181C235.72 111.665 235.04 111.055 234.523 110.35C234.006 109.617 233.665 108.803 233.502 107.908L237.993 106.077C238.102 106.674 238.401 107.23 238.891 107.745C239.381 108.261 240.034 108.681 240.851 109.007C241.695 109.305 242.702 109.454 243.872 109.454C245.125 109.454 246.091 109.278 246.771 108.925C247.452 108.545 247.792 108.016 247.792 107.338C247.792 106.823 247.601 106.416 247.22 106.118C246.839 105.819 246.281 105.562 245.546 105.344C244.811 105.127 243.927 104.924 242.892 104.734C241.885 104.49 240.851 104.232 239.789 103.961C238.755 103.69 237.789 103.31 236.891 102.822C236.02 102.333 235.298 101.696 234.727 100.909C234.183 100.095 233.91 99.0642 233.91 97.8165C233.91 96.5143 234.264 95.3749 234.972 94.3983C235.68 93.4217 236.714 92.6622 238.075 92.1196C239.436 91.5499 241.096 91.265 243.056 91.265C244.825 91.265 246.377 91.5092 247.71 91.9975C249.044 92.4588 250.133 93.1369 250.976 94.0321C251.848 94.9003 252.433 95.9446 252.732 97.1654L247.955 98.7524C247.846 98.1013 247.574 97.5316 247.139 97.0433C246.73 96.555 246.172 96.1888 245.465 95.9446C244.784 95.7005 243.981 95.5784 243.056 95.5784C241.885 95.5784 240.974 95.7682 240.32 96.1481C239.694 96.528 239.381 97.0296 239.381 97.6537C239.381 98.169 239.585 98.5896 239.994 98.9151C240.429 99.2407 241.028 99.5118 241.79 99.729C242.552 99.9188 243.451 100.122 244.485 100.339C245.574 100.557 246.635 100.814 247.669 101.113C248.704 101.384 249.629 101.75 250.446 102.211C251.29 102.673 251.956 103.283 252.446 104.042C252.936 104.802 253.181 105.778 253.181 106.972C253.181 108.383 252.8 109.603 252.038 110.634C251.276 111.638 250.174 112.411 248.731 112.954C247.289 113.497 245.546 113.768 243.505 113.768ZM284.513 113.198V86.3413H290.352V113.198H284.513ZM266.835 113.198V86.3413H272.714V113.198H266.835ZM270.305 102.008V97.2061H286.841V102.008H270.305ZM303.321 113.768C300.817 113.768 298.925 112.927 297.646 111.245C296.394 109.536 295.768 106.945 295.768 103.473V91.8347H301.647V102.74C301.647 104.829 301.96 106.389 302.586 107.42C303.212 108.423 304.165 108.925 305.444 108.925C306.206 108.925 306.873 108.736 307.445 108.356C308.016 107.976 308.506 107.447 308.915 106.769C309.323 106.091 309.622 105.29 309.813 104.368C310.031 103.446 310.153 102.455 310.18 101.397V91.8347H316.06V104.49V113.198H311.324L311.283 106.525H310.548C310.139 108.207 309.622 109.59 308.996 110.675C308.398 111.733 307.622 112.52 306.669 113.035C305.744 113.524 304.628 113.768 303.321 113.768ZM334.435 113.768C333.074 113.768 331.89 113.51 330.883 112.995C329.876 112.452 329.059 111.679 328.434 110.675C327.807 109.672 327.372 108.451 327.127 107.013H326.351L326.31 113.198H321.452V102.7V84.1032H327.331V91.1023C327.331 91.7533 327.29 92.4588 327.209 93.2182C327.127 93.9507 327.005 94.7102 326.841 95.497C326.705 96.2838 326.555 97.0977 326.392 97.9385H327.29C327.644 96.582 328.12 95.4156 328.719 94.439C329.345 93.4354 330.135 92.6756 331.087 92.1603C332.04 91.6176 333.17 91.3464 334.476 91.3464C336.273 91.3464 337.824 91.8077 339.13 92.7299C340.437 93.6522 341.444 94.9543 342.152 96.6364C342.887 98.3185 343.254 100.312 343.254 102.618C343.254 104.87 342.9 106.836 342.193 108.518C341.485 110.173 340.464 111.462 339.13 112.384C337.824 113.306 336.259 113.768 334.435 113.768ZM332.353 108.966C333.333 108.966 334.177 108.708 334.884 108.193C335.592 107.65 336.136 106.891 336.517 105.914C336.898 104.938 337.089 103.798 337.089 102.496C337.089 101.194 336.898 100.068 336.517 99.1186C336.163 98.169 335.646 97.4232 334.966 96.8805C334.285 96.3379 333.455 96.0667 332.475 96.0667C331.822 96.0667 331.223 96.1888 330.679 96.4329C330.135 96.6771 329.658 97.0163 329.25 97.4502C328.842 97.8571 328.488 98.3318 328.189 98.8744C327.889 99.3898 327.671 99.9324 327.535 100.502C327.399 101.072 327.331 101.615 327.331 102.13V102.903C327.331 103.527 327.426 104.205 327.617 104.938C327.807 105.643 328.107 106.307 328.515 106.931C328.951 107.528 329.481 108.016 330.107 108.396C330.733 108.776 331.482 108.966 332.353 108.966Z" fill="#2E7AEB"/>
<path d="M23.011 150.758C22.3414 150.758 21.753 150.687 21.2457 150.546C20.7486 150.404 20.3275 150.197 19.9826 149.924C19.6478 149.641 19.3993 149.297 19.2369 148.892C19.0746 148.488 19.0036 148.018 19.0239 147.482L20.287 147.209C20.2464 147.735 20.3326 148.174 20.5457 148.528C20.7587 148.882 21.0834 149.15 21.5196 149.332C21.9558 149.504 22.4682 149.59 23.0566 149.59C23.6247 149.59 24.1066 149.52 24.5023 149.378C24.898 149.236 25.1922 149.039 25.3849 148.786C25.5878 148.534 25.6893 148.245 25.6893 147.922C25.6893 147.558 25.5726 147.27 25.3393 147.057C25.1059 146.845 24.7914 146.683 24.3958 146.572C24.0102 146.451 23.5791 146.339 23.1023 146.238C22.6356 146.137 22.1689 146.021 21.7022 145.889C21.2356 145.758 20.8145 145.591 20.4391 145.389C20.0739 145.177 19.7746 144.904 19.5413 144.57C19.3181 144.226 19.2065 143.791 19.2065 143.265C19.2065 142.669 19.3536 142.153 19.6478 141.718C19.9522 141.284 20.3783 140.95 20.9261 140.717C21.474 140.475 22.1182 140.353 22.8588 140.353C23.5892 140.353 24.2385 140.47 24.8067 140.702C25.3849 140.935 25.8415 141.279 26.1763 141.734C26.511 142.179 26.6886 142.729 26.7089 143.387L25.4001 143.705C25.4001 143.341 25.3342 143.023 25.2023 142.75C25.0806 142.467 24.9081 142.239 24.6849 142.067C24.4617 141.885 24.1929 141.749 23.8784 141.658C23.5639 141.557 23.2189 141.506 22.8436 141.506C22.387 141.506 21.9863 141.577 21.6414 141.718C21.2964 141.86 21.0276 142.052 20.8348 142.295C20.6421 142.537 20.5457 142.826 20.5457 143.159C20.5457 143.554 20.6826 143.867 20.9566 144.1C21.2406 144.322 21.6058 144.499 22.0522 144.631C22.4986 144.762 22.9754 144.883 23.4827 144.995C23.9189 145.086 24.345 145.197 24.761 145.328C25.1871 145.45 25.5726 145.616 25.9176 145.829C26.2625 146.031 26.5364 146.299 26.7393 146.633C26.9422 146.966 27.0437 147.391 27.0437 147.907C27.0437 148.483 26.8915 148.983 26.5871 149.408C26.2929 149.833 25.8465 150.167 25.248 150.409C24.6494 150.642 23.9037 150.758 23.011 150.758ZM39.199 150.758C38.5802 150.758 38.0324 150.667 37.5554 150.485C37.0889 150.293 36.6933 150.02 36.3686 149.666C36.044 149.312 35.8005 148.892 35.6382 148.407C35.4758 147.922 35.3947 147.376 35.3947 146.769C35.3947 146.152 35.4758 145.586 35.6382 145.07C35.8005 144.555 36.0389 144.105 36.3534 143.721C36.6679 143.336 37.0534 143.043 37.5098 142.841C37.9663 142.628 38.4889 142.522 39.0772 142.522C39.5946 142.522 40.0664 142.608 40.4925 142.78C40.9186 142.952 41.279 143.22 41.5729 143.584C41.8773 143.938 42.1056 144.388 42.2577 144.934C42.4099 145.47 42.4708 146.102 42.4404 146.83L36.2621 146.875V145.935L41.6034 145.889L41.1316 146.526C41.1825 145.889 41.1216 145.364 40.949 144.949C40.7768 144.534 40.5281 144.221 40.2033 144.009C39.889 143.796 39.5137 143.69 39.0772 143.69C38.6107 143.69 38.1998 143.812 37.8446 144.054C37.4898 144.297 37.2158 144.646 37.023 145.101C36.8404 145.556 36.7491 146.107 36.7491 146.754C36.7491 147.684 36.957 148.397 37.3728 148.892C37.7889 149.378 38.4076 149.621 39.2294 149.621C39.5442 149.621 39.8181 149.585 40.0512 149.514C40.2947 149.433 40.4977 149.327 40.6599 149.196C40.8325 149.054 40.9694 148.892 41.0708 148.71C41.1825 148.528 41.2686 148.331 41.3295 148.119L42.5469 148.407C42.4556 148.771 42.3138 149.1 42.1208 149.393C41.9382 149.676 41.7051 149.919 41.4208 150.121C41.1468 150.323 40.8273 150.48 40.462 150.591C40.0968 150.703 39.6759 150.758 39.199 150.758ZM53.0379 150.758C52.6118 150.758 52.2261 150.677 51.8813 150.515C51.5365 150.343 51.2626 150.096 51.0596 149.772C50.8565 149.439 50.7552 149.019 50.7552 148.513C50.7552 148.139 50.8213 147.81 50.953 147.527C51.0952 147.244 51.3083 147.002 51.5922 146.799C51.8865 146.597 52.2618 146.43 52.7183 146.299C53.1748 146.168 53.7327 146.056 54.3923 145.965C54.7675 145.915 55.0719 145.864 55.3053 145.814C55.5488 145.763 55.7262 145.682 55.838 145.571C55.9497 145.45 56.0054 145.273 56.0054 145.04C56.0054 144.656 55.8736 144.332 55.6097 144.069C55.3458 143.806 54.9301 143.675 54.3618 143.675C54.0675 143.675 53.7683 143.726 53.464 143.827C53.1596 143.928 52.8909 144.1 52.6574 144.342C52.4344 144.575 52.2922 144.904 52.2313 145.328L50.953 144.904C51.0343 144.54 51.1661 144.211 51.3487 143.918C51.5413 143.624 51.7848 143.377 52.0792 143.174C52.3735 142.962 52.7131 142.801 53.0988 142.689C53.4944 142.578 53.9305 142.522 54.4075 142.522C55.067 142.522 55.6149 142.634 56.051 142.856C56.4975 143.078 56.8271 143.422 57.0402 143.887C57.2632 144.342 57.375 144.929 57.375 145.647V147.391C57.375 147.704 57.3801 148.048 57.3902 148.422C57.4106 148.786 57.4358 149.156 57.4663 149.53C57.4967 149.894 57.5271 150.237 57.5576 150.561H56.2793C56.2488 150.237 56.2184 149.914 56.188 149.59C56.1675 149.266 56.1523 148.943 56.1423 148.619H55.9445C55.7923 148.993 55.5893 149.342 55.3358 149.666C55.0823 149.99 54.7627 150.252 54.377 150.455C54.0018 150.657 53.5553 150.758 53.0379 150.758ZM53.4488 149.636C53.6718 149.636 53.8953 149.6 54.1183 149.53C54.3518 149.459 54.5801 149.342 54.8031 149.181C55.0366 149.019 55.2545 148.811 55.4575 148.559C55.6706 148.306 55.8584 148.003 56.0206 147.649V146.132L56.4162 146.208C56.254 146.37 56.0358 146.491 55.7619 146.572C55.498 146.653 55.204 146.718 54.8792 146.769C54.5545 146.82 54.2301 146.875 53.9053 146.936C53.5805 146.987 53.2814 147.067 53.0074 147.179C52.7435 147.28 52.5305 147.426 52.3683 147.618C52.2061 147.81 52.1248 148.073 52.1248 148.407C52.1248 148.811 52.2466 149.12 52.49 149.332C52.7335 149.535 53.0531 149.636 53.4488 149.636ZM66.4696 150.561V146.314V142.719H67.7175L67.5957 145.45H67.8544C67.9458 144.853 68.0879 144.337 68.2805 143.903C68.4735 143.468 68.7271 143.129 69.0414 142.886C69.3662 142.644 69.7671 142.522 70.2436 142.522C70.3453 142.522 70.4619 142.532 70.5936 142.553C70.7258 142.563 70.878 142.598 71.0502 142.659L70.9741 144.1C70.8219 144.039 70.6697 143.999 70.5176 143.978C70.3654 143.948 70.2184 143.933 70.0762 143.933C69.6806 143.933 69.3358 144.059 69.0414 144.312C68.7575 144.565 68.5192 144.909 68.3262 145.343C68.1336 145.768 67.9762 146.248 67.8544 146.784V150.561H66.4696ZM82.5645 150.758C81.8745 150.758 81.2862 150.647 80.7992 150.424C80.3223 150.202 79.9318 149.903 79.6274 149.53C79.3331 149.156 79.1152 148.726 78.9731 148.24C78.8413 147.755 78.7753 147.249 78.7753 146.724C78.7753 146.147 78.8513 145.606 79.0035 145.101C79.1557 144.595 79.384 144.15 79.6883 143.766C80.0027 143.372 80.3883 143.068 80.8449 142.856C81.3114 142.634 81.8544 142.522 82.4732 142.522C83.0719 142.522 83.5993 142.628 84.0558 142.841C84.5124 143.043 84.8828 143.331 85.1667 143.705C85.4611 144.079 85.6485 144.524 85.7298 145.04L84.4058 145.404C84.3854 145.121 84.2993 144.848 84.1471 144.585C84.005 144.322 83.7919 144.11 83.508 143.948C83.224 143.776 82.874 143.69 82.458 143.69C82.0623 143.69 81.7223 143.766 81.4384 143.918C81.1644 144.069 80.931 144.282 80.7383 144.555C80.5557 144.828 80.4136 145.146 80.3122 145.51C80.2209 145.874 80.1753 146.269 80.1753 146.693C80.1753 147.28 80.2566 147.79 80.4188 148.225C80.5914 148.66 80.8549 148.999 81.2101 149.241C81.5653 149.484 82.0218 149.605 82.5797 149.605C82.9958 149.605 83.3506 149.535 83.6449 149.393C83.9393 149.241 84.1724 149.034 84.345 148.771C84.5176 148.498 84.6289 148.18 84.6797 147.816L85.958 148.104C85.8872 148.538 85.755 148.923 85.5624 149.256C85.3698 149.59 85.1263 149.868 84.8319 150.091C84.5376 150.303 84.198 150.465 83.8123 150.576C83.4371 150.697 83.021 150.758 82.5645 150.758ZM94.31 150.561V145.798V139.944H95.7405V142.386C95.7405 142.608 95.7305 142.836 95.7101 143.068C95.7 143.291 95.6796 143.518 95.6492 143.751C95.6288 143.984 95.6035 144.221 95.5731 144.464C95.5427 144.696 95.507 144.934 95.4666 145.177H95.7253C95.8774 144.58 96.0701 144.09 96.3036 143.705C96.537 143.311 96.8261 143.018 97.171 142.826C97.5262 142.623 97.9471 142.522 98.434 142.522C99.3267 142.522 99.9914 142.836 100.428 143.463C100.874 144.079 101.097 145.005 101.097 146.238V150.561H99.6971V146.375C99.6971 145.465 99.555 144.803 99.271 144.388C98.9971 143.963 98.581 143.751 98.0232 143.751C97.5566 143.751 97.1609 143.887 96.8362 144.16C96.5114 144.433 96.2527 144.803 96.0601 145.268C95.8774 145.733 95.7557 146.263 95.6948 146.86V150.561H94.31ZM120.905 150.743C120.58 150.743 120.337 150.672 120.175 150.531C120.012 150.389 119.931 150.161 119.931 149.848C119.931 149.545 120.012 149.322 120.175 149.181C120.337 149.039 120.58 148.968 120.905 148.968C121.24 148.968 121.489 149.039 121.651 149.181C121.823 149.322 121.91 149.55 121.91 149.863C121.91 150.45 121.575 150.743 120.905 150.743ZM140.957 150.561V140.551H142.357V150.561H140.957ZM141.414 150.561V149.347H147.044V150.561H141.414ZM158.491 150.758C157.74 150.758 157.076 150.596 156.498 150.273C155.929 149.939 155.483 149.464 155.159 148.847C154.844 148.23 154.687 147.482 154.687 146.602C154.687 145.692 154.854 144.939 155.189 144.342C155.534 143.736 155.99 143.281 156.559 142.977C157.126 142.674 157.761 142.522 158.461 142.522C159.191 142.522 159.84 142.684 160.409 143.008C160.987 143.321 161.443 143.786 161.778 144.403C162.113 145.01 162.28 145.763 162.28 146.663C162.28 147.563 162.113 148.316 161.778 148.923C161.454 149.529 161.002 149.99 160.424 150.303C159.856 150.606 159.211 150.758 158.491 150.758ZM158.552 149.621C159.039 149.621 159.455 149.504 159.8 149.272C160.155 149.029 160.424 148.69 160.607 148.255C160.799 147.821 160.896 147.305 160.896 146.708C160.896 146.092 160.794 145.561 160.591 145.116C160.398 144.661 160.12 144.312 159.754 144.069C159.389 143.817 158.948 143.69 158.43 143.69C157.963 143.69 157.553 143.802 157.198 144.024C156.843 144.246 156.569 144.575 156.376 145.01C156.183 145.434 156.087 145.955 156.087 146.572C156.087 147.522 156.305 148.271 156.741 148.817C157.187 149.353 157.791 149.621 158.552 149.621ZM174.403 150.758C173.713 150.758 173.124 150.647 172.637 150.424C172.161 150.202 171.77 149.903 171.466 149.53C171.171 149.156 170.953 148.726 170.811 148.24C170.679 147.755 170.614 147.249 170.614 146.724C170.614 146.147 170.69 145.606 170.842 145.101C170.994 144.595 171.222 144.15 171.527 143.766C171.841 143.372 172.227 143.068 172.683 142.856C173.15 142.634 173.692 142.522 174.311 142.522C174.91 142.522 175.438 142.628 175.894 142.841C176.351 143.043 176.721 143.331 177.005 143.705C177.299 144.079 177.487 144.524 177.568 145.04L176.244 145.404C176.224 145.121 176.138 144.848 175.985 144.585C175.843 144.322 175.63 144.11 175.346 143.948C175.062 143.776 174.712 143.69 174.296 143.69C173.901 143.69 173.561 143.766 173.277 143.918C173.003 144.069 172.769 144.282 172.577 144.555C172.394 144.828 172.252 145.146 172.15 145.51C172.059 145.874 172.014 146.269 172.014 146.693C172.014 147.28 172.094 147.79 172.257 148.225C172.429 148.66 172.693 148.999 173.048 149.241C173.403 149.484 173.86 149.605 174.418 149.605C174.834 149.605 175.189 149.535 175.483 149.393C175.777 149.241 176.011 149.034 176.183 148.771C176.355 148.498 176.467 148.18 176.518 147.816L177.796 148.104C177.725 148.538 177.593 148.923 177.401 149.256C177.208 149.59 176.964 149.868 176.67 150.091C176.376 150.303 176.036 150.465 175.651 150.576C175.275 150.697 174.859 150.758 174.403 150.758ZM188.137 150.758C187.711 150.758 187.326 150.677 186.981 150.515C186.636 150.343 186.362 150.096 186.159 149.772C185.956 149.439 185.855 149.019 185.855 148.513C185.855 148.139 185.921 147.81 186.053 147.527C186.195 147.244 186.408 147.002 186.692 146.799C186.986 146.597 187.361 146.43 187.818 146.299C188.274 146.168 188.833 146.056 189.492 145.965C189.867 145.915 190.172 145.864 190.405 145.814C190.648 145.763 190.826 145.682 190.937 145.571C191.049 145.45 191.105 145.273 191.105 145.04C191.105 144.656 190.973 144.332 190.709 144.069C190.446 143.806 190.03 143.675 189.461 143.675C189.167 143.675 188.868 143.726 188.563 143.827C188.259 143.928 187.99 144.1 187.757 144.342C187.534 144.575 187.392 144.904 187.331 145.328L186.053 144.904C186.134 144.54 186.266 144.211 186.448 143.918C186.641 143.624 186.885 143.377 187.179 143.174C187.473 142.962 187.813 142.801 188.198 142.689C188.594 142.578 189.03 142.522 189.507 142.522C190.167 142.522 190.714 142.634 191.15 142.856C191.597 143.078 191.927 143.422 192.14 143.887C192.363 144.342 192.474 144.929 192.474 145.647V147.391C192.474 147.704 192.48 148.048 192.49 148.422C192.51 148.786 192.535 149.156 192.566 149.53C192.596 149.894 192.627 150.237 192.657 150.561H191.379C191.348 150.237 191.318 149.914 191.287 149.59C191.267 149.266 191.252 148.943 191.242 148.619H191.044C190.892 148.993 190.689 149.342 190.435 149.666C190.182 149.99 189.862 150.252 189.477 150.455C189.101 150.657 188.655 150.758 188.137 150.758ZM188.548 149.636C188.772 149.636 188.995 149.6 189.218 149.53C189.451 149.459 189.68 149.342 189.903 149.181C190.136 149.019 190.354 148.811 190.557 148.559C190.77 148.306 190.958 148.003 191.12 147.649V146.132L191.516 146.208C191.353 146.37 191.135 146.491 190.861 146.572C190.598 146.653 190.303 146.718 189.979 146.769C189.654 146.82 189.33 146.875 189.005 146.936C188.68 146.987 188.381 147.067 188.107 147.179C187.843 147.28 187.63 147.426 187.468 147.618C187.306 147.81 187.224 148.073 187.224 148.407C187.224 148.811 187.346 149.12 187.59 149.332C187.833 149.535 188.153 149.636 188.548 149.636ZM204.019 150.713C203.289 150.713 202.746 150.515 202.391 150.121C202.036 149.727 201.858 149.125 201.858 148.316V143.872H200.671L200.686 142.719H201.432C201.686 142.719 201.869 142.674 201.98 142.583C202.102 142.492 202.173 142.34 202.193 142.128L202.345 140.945H203.197V142.719H205.465V143.887H203.197V148.286C203.197 148.69 203.289 148.983 203.471 149.165C203.664 149.338 203.938 149.423 204.293 149.423C204.486 149.423 204.684 149.398 204.887 149.347C205.1 149.297 205.308 149.196 205.51 149.044V150.424C205.217 150.536 204.943 150.612 204.689 150.652C204.445 150.692 204.222 150.713 204.019 150.713ZM217.278 150.758C216.659 150.758 216.111 150.667 215.634 150.485C215.167 150.293 214.772 150.02 214.447 149.666C214.122 149.312 213.879 148.892 213.717 148.407C213.554 147.922 213.473 147.376 213.473 146.769C213.473 146.152 213.554 145.586 213.717 145.07C213.879 144.555 214.117 144.105 214.432 143.721C214.746 143.336 215.132 143.043 215.588 142.841C216.045 142.628 216.568 142.522 217.156 142.522C217.673 142.522 218.145 142.608 218.571 142.78C218.997 142.952 219.357 143.22 219.652 143.584C219.956 143.938 220.184 144.388 220.336 144.934C220.488 145.47 220.549 146.102 220.519 146.83L214.341 146.875V145.935L219.682 145.889L219.21 146.526C219.261 145.889 219.2 145.364 219.028 144.949C218.855 144.534 218.607 144.221 218.282 144.009C217.968 143.796 217.592 143.69 217.156 143.69C216.689 143.69 216.278 143.812 215.923 144.054C215.568 144.297 215.294 144.646 215.101 145.101C214.919 145.556 214.827 146.107 214.827 146.754C214.827 147.684 215.035 148.397 215.451 148.892C215.868 149.378 216.486 149.621 217.308 149.621C217.622 149.621 217.896 149.585 218.13 149.514C218.373 149.433 218.576 149.327 218.738 149.196C218.911 149.054 219.048 148.892 219.149 148.71C219.261 148.528 219.347 148.331 219.408 148.119L220.625 148.407C220.534 148.771 220.392 149.1 220.199 149.393C220.017 149.676 219.783 149.919 219.499 150.121C219.225 150.323 218.906 150.48 218.541 150.591C218.175 150.703 217.755 150.758 217.278 150.758ZM240.019 150.743C239.694 150.743 239.451 150.672 239.288 150.531C239.126 150.389 239.045 150.161 239.045 149.848C239.045 149.545 239.126 149.322 239.288 149.181C239.451 149.039 239.694 148.968 240.019 148.968C240.354 148.968 240.602 149.039 240.765 149.181C240.937 149.322 241.023 149.55 241.023 149.863C241.023 150.45 240.688 150.743 240.019 150.743ZM260.071 150.561V140.551H261.471V150.561H260.071ZM260.786 150.561V149.363H267.117V150.561H260.786ZM260.786 146.011V144.888H266.402V146.011H260.786ZM260.786 141.734V140.551H267.102V141.734H260.786ZM275.564 150.561V145.692V142.719H276.812L276.675 145.207H276.934C277.076 144.59 277.263 144.085 277.497 143.69C277.74 143.296 278.044 143.002 278.41 142.81C278.775 142.618 279.201 142.522 279.688 142.522C280.561 142.522 281.22 142.836 281.666 143.463C282.123 144.079 282.351 145.005 282.351 146.238V150.561H280.951V146.36C280.951 145.47 280.809 144.813 280.525 144.388C280.251 143.963 279.845 143.751 279.307 143.751C278.821 143.751 278.405 143.903 278.06 144.206C277.725 144.509 277.461 144.909 277.268 145.404C277.076 145.899 276.969 146.435 276.949 147.012V150.561H275.564ZM294.338 153.215C293.506 153.215 292.822 153.149 292.284 153.018C291.756 152.897 291.366 152.705 291.112 152.442C290.859 152.189 290.732 151.87 290.732 151.486C290.732 151.021 290.914 150.637 291.279 150.333C291.645 150.03 292.198 149.828 292.938 149.727V149.454C292.4 149.454 291.995 149.388 291.721 149.256C291.447 149.125 291.31 148.928 291.31 148.665C291.31 148.392 291.447 148.164 291.721 147.982C291.995 147.79 292.441 147.613 293.06 147.452V147.163C292.441 147.153 291.969 146.971 291.645 146.617C291.32 146.253 291.158 145.783 291.158 145.207C291.158 144.691 291.295 144.246 291.569 143.872C291.853 143.488 292.259 143.195 292.786 142.992C293.324 142.78 293.963 142.674 294.703 142.674H298.417V143.842L295.982 143.463V143.751C296.57 143.872 297.022 144.079 297.336 144.373C297.651 144.656 297.808 145.04 297.808 145.525C297.808 145.96 297.681 146.339 297.427 146.663C297.174 146.987 296.798 147.239 296.301 147.421C295.814 147.593 295.211 147.679 294.49 147.679C294.348 147.679 294.196 147.674 294.034 147.664C293.882 147.644 293.679 147.613 293.425 147.573C293.151 147.745 292.928 147.901 292.756 148.043C292.593 148.185 292.512 148.311 292.512 148.422C292.512 148.534 292.588 148.625 292.74 148.695C292.903 148.756 293.096 148.796 293.319 148.817C293.542 148.837 293.75 148.847 293.943 148.847H295.723C295.926 148.847 296.18 148.867 296.484 148.908C296.798 148.948 297.108 149.034 297.412 149.165C297.727 149.297 297.99 149.499 298.204 149.772C298.417 150.045 298.523 150.424 298.523 150.91C298.523 151.456 298.361 151.901 298.036 152.244C297.711 152.588 297.24 152.836 296.621 152.988C296.002 153.139 295.241 153.215 294.338 153.215ZM294.369 152.078C295.048 152.078 295.596 152.032 296.012 151.941C296.438 151.86 296.748 151.729 296.94 151.547C297.143 151.365 297.245 151.132 297.245 150.849C297.245 150.586 297.174 150.384 297.032 150.242C296.9 150.091 296.733 149.985 296.53 149.924C296.327 149.863 296.124 149.828 295.921 149.818C295.718 149.797 295.546 149.787 295.403 149.787H293.623C293.035 149.919 292.629 150.101 292.406 150.333C292.182 150.566 292.071 150.814 292.071 151.077C292.071 151.36 292.172 151.572 292.375 151.714C292.578 151.855 292.852 151.951 293.197 152.002C293.552 152.052 293.943 152.078 294.369 152.078ZM294.551 146.784C295.19 146.784 295.672 146.653 295.997 146.39C296.322 146.127 296.484 145.773 296.484 145.328C296.484 144.853 296.317 144.464 295.982 144.16C295.657 143.847 295.165 143.69 294.506 143.69C293.866 143.69 293.374 143.837 293.029 144.13C292.695 144.423 292.527 144.803 292.527 145.268C292.527 145.571 292.603 145.839 292.756 146.071C292.918 146.294 293.146 146.471 293.44 146.602C293.745 146.724 294.115 146.784 294.551 146.784ZM308.811 150.758C308.385 150.758 308 150.677 307.655 150.515C307.31 150.343 307.036 150.096 306.833 149.772C306.63 149.439 306.529 149.019 306.529 148.513C306.529 148.139 306.595 147.81 306.727 147.527C306.869 147.244 307.082 147.002 307.366 146.799C307.66 146.597 308.035 146.43 308.492 146.299C308.948 146.168 309.507 146.056 310.166 145.965C310.541 145.915 310.846 145.864 311.079 145.814C311.322 145.763 311.5 145.682 311.612 145.571C311.723 145.45 311.779 145.273 311.779 145.04C311.779 144.656 311.647 144.332 311.383 144.069C311.12 143.806 310.704 143.675 310.135 143.675C309.841 143.675 309.542 143.726 309.238 143.827C308.933 143.928 308.664 144.1 308.431 144.342C308.208 144.575 308.066 144.904 308.005 145.328L306.727 144.904C306.808 144.54 306.94 144.211 307.122 143.918C307.315 143.624 307.559 143.377 307.853 143.174C308.147 142.962 308.487 142.801 308.872 142.689C309.268 142.578 309.704 142.522 310.181 142.522C310.841 142.522 311.388 142.634 311.825 142.856C312.271 143.078 312.601 143.422 312.814 143.887C313.037 144.342 313.149 144.929 313.149 145.647V147.391C313.149 147.704 313.154 148.048 313.164 148.422C313.184 148.786 313.209 149.156 313.24 149.53C313.27 149.894 313.301 150.237 313.331 150.561H312.053C312.022 150.237 311.992 149.914 311.962 149.59C311.941 149.266 311.926 148.943 311.916 148.619H311.718C311.566 148.993 311.363 149.342 311.109 149.666C310.856 149.99 310.536 150.252 310.151 150.455C309.775 150.657 309.329 150.758 308.811 150.758ZM309.222 149.636C309.446 149.636 309.669 149.6 309.892 149.53C310.125 149.459 310.354 149.342 310.577 149.181C310.81 149.019 311.028 148.811 311.231 148.559C311.444 148.306 311.632 148.003 311.794 147.649V146.132L312.19 146.208C312.028 146.37 311.809 146.491 311.535 146.572C311.272 146.653 310.978 146.718 310.653 146.769C310.328 146.82 310.004 146.875 309.679 146.936C309.354 146.987 309.055 147.067 308.781 147.179C308.517 147.28 308.304 147.426 308.142 147.618C307.98 147.81 307.898 148.073 307.898 148.407C307.898 148.811 308.02 149.12 308.264 149.332C308.507 149.535 308.827 149.636 309.222 149.636ZM325.18 153.215C324.348 153.215 323.664 153.149 323.126 153.018C322.598 152.897 322.208 152.705 321.954 152.442C321.701 152.189 321.574 151.87 321.574 151.486C321.574 151.021 321.756 150.637 322.121 150.333C322.487 150.03 323.04 149.828 323.78 149.727V149.454C323.243 149.454 322.837 149.388 322.563 149.256C322.289 149.125 322.152 148.928 322.152 148.665C322.152 148.392 322.289 148.164 322.563 147.982C322.837 147.79 323.283 147.613 323.902 147.452V147.163C323.283 147.153 322.811 146.971 322.487 146.617C322.162 146.253 322 145.783 322 145.207C322 144.691 322.137 144.246 322.411 143.872C322.695 143.488 323.101 143.195 323.628 142.992C324.166 142.78 324.805 142.674 325.545 142.674H329.259V143.842L326.824 143.463V143.751C327.412 143.872 327.864 144.079 328.178 144.373C328.493 144.656 328.65 145.04 328.65 145.525C328.65 145.96 328.523 146.339 328.269 146.663C328.016 146.987 327.641 147.239 327.143 147.421C326.656 147.593 326.053 147.679 325.332 147.679C325.191 147.679 325.038 147.674 324.876 147.664C324.724 147.644 324.521 147.613 324.267 147.573C323.993 147.745 323.77 147.901 323.598 148.043C323.435 148.185 323.354 148.311 323.354 148.422C323.354 148.534 323.43 148.625 323.582 148.695C323.745 148.756 323.938 148.796 324.161 148.817C324.384 148.837 324.592 148.847 324.785 148.847H326.565C326.768 148.847 327.022 148.867 327.326 148.908C327.641 148.948 327.95 149.034 328.254 149.165C328.569 149.297 328.832 149.499 329.046 149.772C329.259 150.045 329.365 150.424 329.365 150.91C329.365 151.456 329.203 151.901 328.878 152.244C328.554 152.588 328.082 152.836 327.463 152.988C326.844 153.139 326.083 153.215 325.18 153.215ZM325.211 152.078C325.891 152.078 326.438 152.032 326.854 151.941C327.28 151.86 327.59 151.729 327.782 151.547C327.986 151.365 328.087 151.132 328.087 150.849C328.087 150.586 328.016 150.384 327.874 150.242C327.742 150.091 327.575 149.985 327.372 149.924C327.169 149.863 326.966 149.828 326.763 149.818C326.56 149.797 326.388 149.787 326.245 149.787H324.465C323.877 149.919 323.471 150.101 323.248 150.333C323.024 150.566 322.913 150.814 322.913 151.077C322.913 151.36 323.014 151.572 323.217 151.714C323.42 151.855 323.694 151.951 324.039 152.002C324.394 152.052 324.785 152.078 325.211 152.078ZM325.393 146.784C326.032 146.784 326.515 146.653 326.839 146.39C327.164 146.127 327.326 145.773 327.326 145.328C327.326 144.853 327.159 144.464 326.824 144.16C326.499 143.847 326.007 143.69 325.348 143.69C324.708 143.69 324.217 143.837 323.871 144.13C323.537 144.423 323.369 144.803 323.369 145.268C323.369 145.571 323.445 145.839 323.598 146.071C323.76 146.294 323.988 146.471 324.282 146.602C324.587 146.724 324.957 146.784 325.393 146.784ZM341.132 150.758C340.513 150.758 339.965 150.667 339.488 150.485C339.022 150.293 338.626 150.02 338.301 149.666C337.977 149.312 337.733 148.892 337.571 148.407C337.409 147.922 337.327 147.376 337.327 146.769C337.327 146.152 337.409 145.586 337.571 145.07C337.733 144.555 337.972 144.105 338.286 143.721C338.601 143.336 338.986 143.043 339.443 142.841C339.899 142.628 340.422 142.522 341.01 142.522C341.527 142.522 341.999 142.608 342.425 142.78C342.851 142.952 343.212 143.22 343.506 143.584C343.81 143.938 344.038 144.388 344.191 144.934C344.343 145.47 344.404 146.102 344.373 146.83L338.195 146.875V145.935L343.536 145.889L343.064 146.526C343.115 145.889 343.054 145.364 342.882 144.949C342.71 144.534 342.461 144.221 342.136 144.009C341.822 143.796 341.447 143.69 341.01 143.69C340.544 143.69 340.133 143.812 339.777 144.054C339.423 144.297 339.149 144.646 338.956 145.101C338.773 145.556 338.682 146.107 338.682 146.754C338.682 147.684 338.89 148.397 339.306 148.892C339.722 149.378 340.34 149.621 341.162 149.621C341.477 149.621 341.751 149.585 341.984 149.514C342.228 149.433 342.431 149.327 342.593 149.196C342.765 149.054 342.902 148.892 343.004 148.71C343.115 148.528 343.201 148.331 343.262 148.119L344.48 148.407C344.388 148.771 344.247 149.1 344.054 149.393C343.871 149.676 343.638 149.919 343.354 150.121C343.08 150.323 342.76 150.48 342.395 150.591C342.03 150.703 341.609 150.758 341.132 150.758Z" fill="#51687D"/>
<path d="M17.8159 125.961H345.184" stroke="#677B8D"/>
</g>
</g>
<defs>
<clipPath id="clip0_281_7735">
<rect width="363" height="155" fill="white"/>
</clipPath>
</defs>
</svg>
