<svg width="453" height="509" viewBox="0 0 453 509" fill="none" xmlns="http://www.w3.org/2000/svg">
<g clip-path="url(#clip0_940_18529)">
<path d="M253.148 120.957H250.359V44.3426C250.359 32.5822 245.699 21.3035 237.404 12.9877C229.11 4.67182 217.86 1.48393e-05 206.13 1.41212e-10H44.2287C38.4205 -1.46951e-05 32.6692 1.14693 27.3031 3.37533C21.937 5.60374 17.0613 8.86998 12.9543 12.9876C8.8473 17.1051 5.58944 21.9934 3.36674 27.3733C1.14403 32.7532 1.28253e-05 38.5193 0 44.3425V464.657C-5.49652e-06 470.481 1.14398 476.247 3.36667 481.627C5.58936 487.007 8.84722 491.895 12.9542 496.012C17.0612 500.13 21.9369 503.396 27.303 505.625C32.669 507.853 38.4203 509 44.2285 509H206.13C217.86 509 229.11 504.328 237.404 496.012C245.699 487.697 250.359 476.418 250.359 464.658V175.493H253.148V120.957Z" fill="#E6E6E6"/>
<path d="M207.914 11.5364H186.78C187.752 13.9253 188.123 16.5171 187.86 19.0836C187.598 21.6501 186.71 24.1124 185.274 26.2537C183.839 28.395 181.9 30.1496 179.629 31.3628C177.358 32.576 174.825 33.2107 172.251 33.2109H79.5001C76.9268 33.2107 74.393 32.576 72.122 31.3628C69.8509 30.1496 67.9124 28.395 66.477 26.2537C65.0416 24.1124 64.1536 21.65 63.891 19.0836C63.6284 16.5171 63.9994 13.9252 64.9713 11.5364H45.2325C36.4726 11.5364 28.0715 15.0252 21.8772 21.2354C15.683 27.4456 12.2031 35.8684 12.2031 44.6509V464.349C12.2031 473.132 15.683 481.555 21.8772 487.765C28.0714 493.975 36.4725 497.464 45.2325 497.464H207.914C212.251 497.464 216.546 496.607 220.554 494.943C224.561 493.279 228.202 490.84 231.269 487.765C234.336 484.69 236.769 481.039 238.429 477.022C240.089 473.004 240.943 468.698 240.943 464.349V44.6509C240.943 40.3022 240.089 35.9962 238.429 31.9785C236.769 27.9609 234.336 24.3104 231.269 21.2354C228.202 18.1605 224.561 15.7213 220.553 14.0571C216.546 12.393 212.251 11.5364 207.914 11.5364Z" fill="white"/>
<path d="M227.519 341.175H32.4598C31.5021 341.174 30.584 340.792 29.9069 340.113C29.2297 339.434 28.8488 338.514 28.8477 337.554V289.043C28.8488 288.083 29.2297 287.163 29.9069 286.484C30.584 285.805 31.5021 285.423 32.4598 285.422H227.519C228.477 285.423 229.395 285.805 230.072 286.484C230.75 287.163 231.13 288.083 231.132 289.043V337.554C231.13 338.514 230.749 339.435 230.072 340.113C229.395 340.792 228.477 341.174 227.519 341.175ZM32.4598 286.87C31.8851 286.871 31.3342 287.1 30.9278 287.507C30.5215 287.915 30.2929 288.467 30.2924 289.043V337.554C30.2929 338.13 30.5215 338.683 30.9278 339.09C31.3342 339.498 31.8851 339.727 32.4598 339.727H227.519C228.094 339.727 228.645 339.498 229.051 339.09C229.458 338.683 229.686 338.13 229.687 337.554V289.043C229.686 288.467 229.458 287.915 229.051 287.507C228.645 287.1 228.094 286.871 227.519 286.87H32.4598Z" fill="#E6E6E6"/>
<path d="M57.7454 328.509C66.1242 328.509 72.9166 321.699 72.9166 313.298C72.9166 304.898 66.1242 298.088 57.7454 298.088C49.3666 298.088 42.5742 304.898 42.5742 313.298C42.5742 321.699 49.3666 328.509 57.7454 328.509Z" fill="#E6E6E6"/>
<path d="M92.7837 303.159C92.1204 303.17 91.4879 303.442 91.0228 303.916C90.5576 304.39 90.2969 305.028 90.2969 305.693C90.2969 306.359 90.5576 306.997 91.0228 307.471C91.4879 307.945 92.1204 308.217 92.7837 308.228H211.987C212.657 308.241 213.305 307.987 213.789 307.521C214.272 307.054 214.551 306.415 214.564 305.743C214.577 305.07 214.323 304.42 213.858 303.936C213.393 303.451 212.755 303.172 212.084 303.159L212.07 303.159C212.042 303.158 212.014 303.158 211.987 303.159H92.7837Z" fill="#E6E6E6"/>
<path d="M92.7837 318.369C92.1204 318.38 91.4879 318.652 91.0228 319.126C90.5576 319.6 90.2969 320.239 90.2969 320.904C90.2969 321.569 90.5576 322.207 91.0228 322.681C91.4879 323.156 92.1204 323.428 92.7837 323.439H211.987C212.656 323.448 213.302 323.191 213.782 322.723C214.263 322.256 214.539 321.616 214.55 320.945C214.561 320.274 214.306 319.626 213.841 319.143C213.376 318.66 212.739 318.381 212.07 318.369C212.042 318.368 212.014 318.368 211.987 318.369H92.7837Z" fill="#E6E6E6"/>
<path d="M227.519 422.297H32.4598C31.5021 422.296 30.584 421.914 29.9069 421.235C29.2297 420.556 28.8488 419.636 28.8477 418.676V370.165C28.8488 369.205 29.2297 368.285 29.9069 367.606C30.584 366.927 31.5021 366.545 32.4598 366.544H227.519C228.477 366.545 229.395 366.927 230.072 367.606C230.75 368.285 231.13 369.205 231.132 370.165V418.676C231.13 419.636 230.749 420.557 230.072 421.235C229.395 421.914 228.477 422.296 227.519 422.297ZM32.4598 367.992C31.8851 367.993 31.3342 368.222 30.9278 368.629C30.5215 369.037 30.2929 369.589 30.2924 370.165V418.676C30.2929 419.253 30.5215 419.805 30.9278 420.212C31.3342 420.62 31.8851 420.849 32.4598 420.849H227.519C228.094 420.849 228.645 420.62 229.051 420.212C229.458 419.805 229.686 419.253 229.687 418.676V370.165C229.686 369.589 229.458 369.037 229.051 368.629C228.645 368.222 228.094 367.993 227.519 367.992H32.4598Z" fill="#E6E6E6"/>
<path d="M57.7454 409.631C66.1242 409.631 72.9166 402.821 72.9166 394.421C72.9166 386.02 66.1242 379.21 57.7454 379.21C49.3666 379.21 42.5742 386.02 42.5742 394.421C42.5742 402.821 49.3666 409.631 57.7454 409.631Z" fill="#E6E6E6"/>
<path d="M92.7837 384.281C92.1204 384.292 91.4879 384.564 91.0228 385.038C90.5576 385.512 90.2969 386.15 90.2969 386.816C90.2969 387.481 90.5576 388.119 91.0228 388.593C91.4879 389.068 92.1204 389.339 92.7837 389.351H211.987C212.656 389.36 213.302 389.103 213.782 388.635C214.263 388.168 214.539 387.528 214.55 386.857C214.561 386.186 214.306 385.538 213.841 385.055C213.376 384.572 212.739 384.293 212.07 384.281C212.042 384.28 212.014 384.28 211.987 384.281H92.7837Z" fill="#E6E6E6"/>
<path d="M92.7837 399.491C92.1204 399.502 91.4879 399.774 91.0228 400.248C90.5576 400.722 90.2969 401.361 90.2969 402.026C90.2969 402.691 90.5576 403.33 91.0228 403.804C91.4879 404.278 92.1204 404.55 92.7837 404.561H211.987C212.656 404.57 213.302 404.313 213.782 403.846C214.263 403.378 214.539 402.739 214.55 402.067C214.561 401.396 214.306 400.748 213.841 400.265C213.376 399.782 212.739 399.504 212.07 399.491C212.042 399.491 212.014 399.491 211.987 399.491H92.7837Z" fill="#E6E6E6"/>
<path d="M125.886 240.509C107.691 240.516 90.2385 233.277 77.3675 220.384C64.4966 207.49 57.2615 189.999 57.2539 171.757V171.7C57.2539 171.556 57.2539 171.404 57.2623 171.26C57.4715 133.578 88.2576 102.891 125.886 102.891C144.088 102.889 161.546 110.136 174.418 123.039C187.29 135.941 194.523 153.442 194.525 171.692C194.527 189.941 187.298 207.443 174.429 220.349C161.56 233.254 144.104 240.506 125.901 240.508H125.886V240.509ZM125.886 104.338C108.148 104.377 91.1417 111.433 78.5631 123.972C65.9844 136.511 58.8491 153.52 58.7077 171.303C58.7 171.457 58.7 171.583 58.7 171.698C58.6984 185.022 62.6377 198.048 70.0198 209.127C77.402 220.207 87.8954 228.843 100.173 233.944C112.451 239.044 125.961 240.38 138.996 237.782C152.031 235.184 164.005 228.77 173.404 219.349C182.802 209.929 189.204 197.925 191.798 184.858C194.392 171.79 193.063 158.244 187.979 145.933C182.895 133.623 174.283 123.1 163.234 115.696C152.185 108.292 139.194 104.339 125.904 104.338H125.886Z" fill="#E6E6E6"/>
<path d="M219.82 323.706C235.23 323.706 247.723 311.181 247.723 295.731C247.723 280.28 235.23 267.755 219.82 267.755C204.409 267.755 191.916 280.28 191.916 295.731C191.916 311.181 204.409 323.706 219.82 323.706Z" fill="white"/>
<path d="M210.13 308.317C210.082 308.317 210.034 308.317 209.986 308.316H194.988C193.085 308.286 191.27 307.507 189.935 306.147C188.599 304.787 187.85 302.956 187.85 301.048C187.849 299.139 188.596 297.307 189.931 295.947C191.265 294.586 193.079 293.805 194.982 293.774H209.993C210.067 293.772 210.147 293.772 210.226 293.774C212.141 293.8 213.967 294.585 215.307 295.956C216.647 297.327 217.392 299.174 217.379 301.093C217.367 303.013 216.597 304.85 215.239 306.203C213.881 307.556 212.045 308.316 210.13 308.317Z" fill="#2579F1"/>
<path d="M452.999 507.297H226.957V508.865H452.999V507.297Z" fill="#3F3D56"/>
<path d="M240.885 374.684C240.707 374.408 240.56 374.112 240.445 373.804L236.844 364.134C236.424 363.004 236.469 361.754 236.968 360.657C237.467 359.561 238.379 358.708 239.505 358.285L319.897 328.189C321.024 327.768 322.271 327.813 323.364 328.313C324.458 328.813 325.309 329.728 325.731 330.857L329.333 340.527C329.541 341.087 329.637 341.682 329.616 342.278C329.595 342.875 329.457 343.462 329.21 344.005C328.963 344.548 328.611 345.037 328.176 345.444C327.74 345.851 327.229 346.168 326.671 346.376L246.28 376.472C245.312 376.834 244.25 376.854 243.269 376.529C242.288 376.204 241.447 375.553 240.885 374.684Z" fill="#2579F1"/>
<path d="M319.642 325.69L286.951 338.759C285.921 339.07 285.049 339.766 284.518 340.704C283.986 341.641 283.835 342.748 284.095 343.795L287.889 359.024C288.039 359.625 288.32 360.186 288.712 360.666C289.104 361.146 289.597 361.532 290.156 361.798C290.714 362.064 291.325 362.202 291.944 362.203C292.562 362.204 293.173 362.068 293.733 361.804L326.514 346.334C327.553 345.943 328.394 345.156 328.855 344.145C329.316 343.133 329.358 341.98 328.973 340.937L325.032 328.155C324.643 327.112 323.856 326.267 322.846 325.805C321.835 325.342 320.683 325.301 319.642 325.69Z" fill="#2F2E41"/>
<path d="M379.469 420.57C378.442 420.688 377.407 420.452 376.532 419.9C375.658 419.348 374.998 418.513 374.661 417.534L346.678 336.203C346.483 335.639 346.402 335.042 346.438 334.446C346.474 333.85 346.627 333.267 346.887 332.73C347.148 332.193 347.512 331.713 347.957 331.318C348.403 330.922 348.922 330.618 349.485 330.423L359.219 327.057C360.356 326.664 361.601 326.741 362.682 327.268C363.763 327.796 364.591 328.733 364.983 329.872L392.967 411.204C393.358 412.344 393.281 413.592 392.755 414.676C392.229 415.759 391.295 416.589 390.159 416.984L380.426 420.35C380.116 420.457 379.795 420.531 379.469 420.57Z" fill="#2579F1"/>
<path d="M367.068 328.48L377.808 362.082C378.224 363.077 378.243 364.194 377.859 365.202C377.476 366.209 376.721 367.03 375.75 367.494L361.616 374.248C361.058 374.515 360.447 374.655 359.829 374.657C359.211 374.659 358.599 374.523 358.039 374.26C357.479 373.997 356.984 373.613 356.59 373.135C356.196 372.657 355.912 372.098 355.759 371.497L346.809 336.298C346.449 335.246 346.519 334.094 347.005 333.094C347.49 332.094 348.351 331.328 349.398 330.963L361.742 325.879C362.792 325.517 363.943 325.587 364.941 326.075C365.94 326.563 366.705 327.428 367.068 328.48Z" fill="#2F2E41"/>
<path d="M334.551 507.759H324.255C323.053 507.757 321.9 507.278 321.05 506.425C320.2 505.573 319.722 504.418 319.721 503.212V417.177C319.722 415.972 320.2 414.817 321.05 413.964C321.9 413.112 323.053 412.633 324.255 412.631H334.551C335.753 412.633 336.906 413.112 337.756 413.964C338.606 414.817 339.084 415.972 339.085 417.177V503.212C339.084 504.418 338.606 505.573 337.756 506.425C336.906 507.278 335.753 507.757 334.551 507.759Z" fill="#2F2E41"/>
<path d="M354.915 507.759H344.618C343.416 507.757 342.264 507.278 341.414 506.426C340.564 505.573 340.085 504.418 340.084 503.213V417.178C340.085 415.972 340.564 414.817 341.414 413.965C342.264 413.112 343.416 412.633 344.618 412.632H354.915C356.117 412.633 357.269 413.112 358.119 413.965C358.969 414.817 359.448 415.972 359.449 417.178V503.213C359.448 504.418 358.969 505.573 358.119 506.426C357.269 507.278 356.117 507.757 354.915 507.759Z" fill="#2F2E41"/>
<path d="M363.4 427.292H316.618C315.323 427.291 314.082 426.775 313.166 425.857C312.251 424.939 311.736 423.695 311.734 422.397V346.202C311.734 338.684 314.713 331.474 320.016 326.158C325.318 320.842 332.51 317.855 340.009 317.855C347.507 317.855 354.699 320.842 360.001 326.158C365.304 331.474 368.283 338.684 368.283 346.202V422.397C368.281 423.695 367.766 424.939 366.851 425.857C365.936 426.775 364.694 427.291 363.4 427.292Z" fill="#CCCCCC"/>
<path d="M370.441 445.931H346.723V311.54L347.163 311.66C353.843 313.498 359.737 317.483 363.942 323.002C368.146 328.521 370.429 335.27 370.441 342.215V445.931Z" fill="#2F2E41"/>
<path d="M331.367 445.931H307.648V342.215C307.66 335.27 309.943 328.521 314.148 323.002C318.352 317.483 324.246 313.499 330.926 311.66L331.367 311.54V445.931Z" fill="#2F2E41"/>
<path d="M339.655 302.094C360.274 302.094 376.989 285.336 376.989 264.663C376.989 243.991 360.274 227.232 339.655 227.232C319.036 227.232 302.32 243.991 302.32 264.663C302.32 285.336 319.036 302.094 339.655 302.094Z" fill="#2579F1"/>
<path d="M381.863 256.046C381.863 256.046 383.956 197.996 356.75 216.88C356.75 216.88 341.054 164.076 302.687 243.107L291.525 254.297C291.525 254.297 341.752 247.303 388.491 268.984L381.863 256.046Z" fill="#2F2E41"/>
<path d="M340.224 283.2C337.918 283.136 335.048 283.056 332.837 281.437C332.178 280.935 331.637 280.294 331.252 279.561C330.866 278.827 330.645 278.018 330.605 277.189C330.565 276.601 330.661 276.011 330.886 275.466C331.111 274.92 331.459 274.435 331.902 274.047C333.057 273.068 334.744 272.839 336.561 273.374L334.678 259.579L336.06 259.389L338.274 275.607L337.12 275.076C335.781 274.461 333.944 274.148 332.803 275.115C332.523 275.368 332.304 275.682 332.165 276.033C332.025 276.385 331.968 276.763 331.999 277.14C332.033 277.757 332.198 278.359 332.485 278.905C332.772 279.451 333.172 279.93 333.66 280.307C335.381 281.567 337.668 281.73 340.263 281.802L340.224 283.2Z" fill="#2F2E41"/>
<path d="M327.842 260.768H320.328V262.167H327.842V260.768Z" fill="#2F2E41"/>
<path d="M351.561 260.769H344.047V262.167H351.561V260.769Z" fill="#2F2E41"/>
<path d="M256.414 378.253C255.407 378.721 254.256 378.769 253.213 378.386C252.171 378.004 251.323 377.222 250.856 376.212L226.781 324.189C226.314 323.179 226.266 322.025 226.648 320.98C227.03 319.935 227.81 319.085 228.817 318.617C229.823 318.148 230.975 318.1 232.017 318.483C233.059 318.865 233.907 319.647 234.375 320.656L258.449 372.68C258.916 373.689 258.964 374.844 258.583 375.889C258.201 376.934 257.421 377.784 256.414 378.253Z" fill="#3F3D56"/>
<path d="M231.679 322.274C230.939 322.274 230.229 321.98 229.706 321.455C229.183 320.93 228.889 320.219 228.889 319.477V283.841H194.009C193.269 283.841 192.559 283.546 192.036 283.022C191.513 282.497 191.219 281.786 191.219 281.044C191.219 280.302 191.513 279.59 192.036 279.065C192.559 278.541 193.269 278.246 194.009 278.246H231.679C232.419 278.246 233.129 278.541 233.652 279.065C234.175 279.59 234.469 280.302 234.469 281.044V319.477C234.469 320.219 234.175 320.93 233.652 321.455C233.129 321.98 232.419 322.274 231.679 322.274Z" fill="#2579F1"/>
<path d="M232.34 326.229C226.333 329.024 219.634 329.969 213.09 328.947C206.547 327.924 200.453 324.979 195.579 320.484C190.705 315.988 187.27 310.145 185.708 303.693C184.146 297.24 184.528 290.469 186.805 284.234C189.082 277.999 193.152 272.581 198.501 268.665C203.849 264.75 210.235 262.512 216.852 262.235C223.469 261.958 230.019 263.655 235.674 267.11C241.329 270.566 245.835 275.625 248.622 281.648C252.35 289.726 252.729 298.956 249.676 307.314C246.624 315.672 240.389 322.474 232.34 326.229ZM207.679 272.937C203.173 275.033 199.388 278.421 196.804 282.673C194.219 286.925 192.95 291.851 193.157 296.826C193.364 301.802 195.038 306.604 197.967 310.625C200.896 314.647 204.949 317.707 209.613 319.419C214.277 321.132 219.343 321.419 224.17 320.244C228.997 319.07 233.368 316.487 236.731 312.822C240.093 309.157 242.297 304.575 243.062 299.655C243.827 294.734 243.119 289.697 241.029 285.18C238.22 279.128 233.131 274.44 226.879 272.145C220.627 269.849 213.722 270.134 207.679 272.937Z" fill="#3F3D56"/>
</g>
<defs>
<clipPath id="clip0_940_18529">
<rect width="453" height="509" fill="white"/>
</clipPath>
</defs>
</svg>
