<svg width="33" height="35" viewBox="0 0 33 35" fill="none" xmlns="http://www.w3.org/2000/svg">
<path d="M32.0805 2.20275C32.1233 1.90375 31.9155 1.62674 31.6165 1.58403L26.7441 0.887966C26.4451 0.845255 26.1681 1.05301 26.1254 1.35201C26.0827 1.651 26.2904 1.92801 26.5894 1.97072L30.1548 2.48007L24.1997 6.94647C24.0079 7.09024 23.7449 7.09243 23.5508 6.95188L16.8348 2.08861C16.3211 1.71661 15.639 1.67404 15.083 1.97928L1.74473 9.30229C1.47997 9.44765 1.38318 9.7801 1.52854 10.0448C1.67389 10.3096 2.00635 10.4064 2.2711 10.261L15.6094 2.93804C15.7947 2.8363 16.0221 2.85049 16.1934 2.97449L22.9093 7.83776C23.4916 8.25946 24.2807 8.25284 24.8559 7.82147L30.8111 3.35507L30.3018 6.92049C30.259 7.21947 30.4668 7.49646 30.7658 7.53917C31.0648 7.58188 31.3418 7.37412 31.3845 7.07515L32.0805 2.20275Z" fill="#EEEEEE"/>
<path d="M14.8594 7.86757C13.9533 7.86757 13.2188 8.60213 13.2188 9.50819V17.7113C13.2188 18.6174 13.9533 19.3519 14.8594 19.3519H17.0469C17.953 19.3519 18.6875 18.6174 18.6875 17.7113V9.50819C18.6875 8.60213 17.953 7.86757 17.0469 7.86757H14.8594Z" fill="#EEEEEE"/>
<path d="M7.75 10.6019C6.84388 10.6019 6.10938 11.3365 6.10938 12.2426V17.7113C6.10938 18.6174 6.84388 19.3519 7.75 19.3519H9.9375C10.8436 19.3519 11.5781 18.6174 11.5781 17.7113V12.2426C11.5781 11.3365 10.8436 10.6019 9.9375 10.6019H7.75Z" fill="#EEEEEE"/>
<path d="M20.3281 13.3363C20.3281 12.4303 21.0626 11.6957 21.9688 11.6957H24.1562C25.0624 11.6957 25.7969 12.4303 25.7969 13.3363V17.7113C25.7969 18.6174 25.0624 19.3519 24.1562 19.3519H21.9688C21.0626 19.3519 20.3281 18.6174 20.3281 17.7113V13.3363Z" fill="#EEEEEE"/>
<path d="M29.0781 10.6019C28.172 10.6019 27.4375 11.3365 27.4375 12.2426V17.7113C27.4375 18.6174 28.172 19.3519 29.0781 19.3519H31.2656C32.1717 19.3519 32.9062 18.6174 32.9062 17.7113V12.2426C32.9062 11.3365 32.1717 10.6019 31.2656 10.6019H29.0781Z" fill="#EEEEEE"/>
<path d="M0.09375 22.1957C0.09375 20.5902 1.47655 19.3519 3.10156 19.3519C3.8197 19.3519 4.49052 19.5938 5.01562 20.0023V31.2798C4.49052 31.6882 3.8197 31.9301 3.10156 31.9301C1.47655 31.9301 0.09375 30.6918 0.09375 29.0863V22.1957Z" fill="#EEEEEE"/>
<path d="M6.10938 31.3363L12.3611 33.5465C13.1307 33.9224 13.9751 34.1178 14.8309 34.1176H16.9516C18.1653 34.1178 19.3651 33.8577 20.4711 33.3548L31.1076 29.4804C31.1206 29.4757 31.1334 29.4704 31.146 29.4648C31.5073 29.3012 31.8134 29.0365 32.0283 28.7029C32.2432 28.3694 32.358 27.9809 32.3594 27.584V27.5762C32.3559 27.2537 32.2783 26.9362 32.1325 26.6486C31.9867 26.3611 31.7766 26.111 31.5182 25.9185C31.2598 25.726 30.9603 25.5963 30.6432 25.5398C30.3383 25.4856 30.0253 25.5006 29.7273 25.5836L23.0309 26.6899C22.8217 26.7244 22.63 26.8233 22.4579 26.9472C22.3094 27.0542 22.1563 27.1452 21.9941 27.2417C21.8698 27.3155 21.7403 27.3925 21.6035 27.4822C21.5571 27.5126 21.5109 27.5429 21.4649 27.5732C21.3833 27.6269 21.2888 27.6578 21.1913 27.6627L15.9428 27.9237C15.6412 27.9388 15.3845 27.7064 15.3695 27.4047C15.3545 27.1031 15.5868 26.8463 15.8885 26.8313L20.6906 26.5925C20.8854 26.5828 21.0743 26.5215 21.2369 26.4137C21.5958 26.1753 21.8843 25.973 22.1045 25.7589C22.3747 25.4962 22.4866 25.2679 22.4872 24.9939C22.4855 24.8313 22.4466 24.5814 22.3675 24.3372C22.2835 24.0784 22.183 23.9146 22.1136 23.8516C21.8694 23.6296 21.5311 23.4996 21.1713 23.5021H21.1623L16.95 23.4621L15.9281 23.5017C15.7855 23.5073 15.4717 23.3997 15.3709 23.3141C15.2367 23.258 15.1145 23.1757 15.0114 23.0718C13.6917 21.7411 11.9008 20.9926 10.0324 20.9926L6.10938 20.9926V31.3363Z" fill="#EEEEEE"/>
</svg>
