<svg width="10" height="11" viewBox="0 0 10 11" fill="none" xmlns="http://www.w3.org/2000/svg">
<path d="M9.35924 1.71875H7.57449L6.83788 0.499512C6.63163 0.189643 6.31316 0 5.94919 0H3.7567C3.39273 0 3.05475 0.189643 2.86843 0.499512L2.13139 1.71875H0.346639C0.154363 1.71875 0 1.87193 0 2.0625V2.40625C0 2.59746 0.154363 2.75 0.346639 2.75H0.693277V9.625C0.693277 10.3845 1.31398 11 2.07983 11H7.62605C8.3919 11 9.0126 10.3845 9.0126 9.625V2.75H9.35924C9.55206 2.75 9.70588 2.59746 9.70588 2.40625V2.0625C9.70588 1.87193 9.55206 1.71875 9.35924 1.71875ZM3.7242 1.09312C3.74586 1.05553 3.78919 1.03125 3.83469 1.03125H5.87119C5.91723 1.03125 5.96056 1.05542 5.98222 1.09302L6.36082 1.71875H3.34506L3.7242 1.09312ZM7.62605 9.96875H2.07983C1.88838 9.96875 1.73319 9.81486 1.73319 9.625V2.75H7.97269V9.625C7.97269 9.81406 7.8167 9.96875 7.62605 9.96875ZM4.85294 8.9375C5.04455 8.9375 5.19958 8.78376 5.19958 8.59375V4.125C5.19958 3.93499 5.04455 3.78125 4.85294 3.78125C4.66134 3.78125 4.5063 3.93594 4.5063 4.125V8.59375C4.5063 8.78281 4.66229 8.9375 4.85294 8.9375ZM3.11975 8.9375C3.3104 8.9375 3.46639 8.78281 3.46639 8.59375V4.125C3.46639 3.93499 3.31135 3.78125 3.11975 3.78125C2.92814 3.78125 2.77311 3.93594 2.77311 4.125V8.59375C2.77311 8.78281 2.9291 8.9375 3.11975 8.9375ZM6.58613 8.9375C6.77774 8.9375 6.93277 8.78376 6.93277 8.59375V4.125C6.93277 3.93499 6.77774 3.78125 6.58613 3.78125C6.39453 3.78125 6.2395 3.93594 6.2395 4.125V8.59375C6.2395 8.78281 6.39548 8.9375 6.58613 8.9375Z" fill="#B3261E"/>
</svg>
