<svg width="44" height="44" viewBox="0 0 44 44" fill="none" xmlns="http://www.w3.org/2000/svg">
<g clip-path="url(#clip0_2576_21050)">
<path fill-rule="evenodd" clip-rule="evenodd" d="M37.931 22.6524V33.3793C37.931 35.4742 36.2328 37.1724 34.1379 37.1724H18.2069L7.51793 43.8559C7.22578 44.0381 6.85776 44.0475 6.5567 43.8804C6.25563 43.7133 6.0689 43.396 6.06897 43.0517V37.1724H3.7931C2.78711 37.1724 1.82232 36.7728 1.11097 36.0614C0.399629 35.3501 0 34.3853 0 33.3793V13.6552C0 11.5603 1.69823 9.86206 3.7931 9.86206H19.9366L37.931 22.6524Z" fill="#F3D55B"/>
<path fill-rule="evenodd" clip-rule="evenodd" d="M43.9985 12.1379C43.9985 18.8415 38.5642 24.2758 31.8606 24.2758C25.157 24.2758 19.7227 18.8415 19.7227 12.1379C19.7239 11.3744 19.795 10.6126 19.9351 9.86203C21.1023 3.70506 26.7647 -0.551233 33.0035 0.0388161C39.2423 0.628865 44.0063 5.87127 43.9985 12.1379Z" fill="#FF5364"/>
<path fill-rule="evenodd" clip-rule="evenodd" d="M15.9309 15.1724H4.55159C4.13261 15.1724 3.79297 14.8327 3.79297 14.4138C3.79297 13.9948 4.13261 13.6552 4.55159 13.6552H15.9309C16.3499 13.6552 16.6895 13.9948 16.6895 14.4138C16.6895 14.8327 16.3499 15.1724 15.9309 15.1724Z" fill="#F29C1F"/>
<path fill-rule="evenodd" clip-rule="evenodd" d="M17.4481 19.7242H4.55159C4.13261 19.7242 3.79297 19.3845 3.79297 18.9655C3.79297 18.5466 4.13261 18.2069 4.55159 18.2069H17.4481C17.8671 18.2069 18.2068 18.5466 18.2068 18.9655C18.2068 19.3845 17.8671 19.7242 17.4481 19.7242Z" fill="#F29C1F"/>
<path fill-rule="evenodd" clip-rule="evenodd" d="M20.4826 24.2758H4.55159C4.13261 24.2758 3.79297 23.9361 3.79297 23.5172C3.79297 23.0982 4.13261 22.7585 4.55159 22.7585H20.4826C20.9016 22.7585 21.2412 23.0982 21.2412 23.5172C21.2412 23.9361 20.9016 24.2758 20.4826 24.2758Z" fill="#F29C1F"/>
<path fill-rule="evenodd" clip-rule="evenodd" d="M33.3797 28.8275H11.3797C10.9607 28.8275 10.6211 28.4879 10.6211 28.0689C10.6211 27.6499 10.9607 27.3103 11.3797 27.3103H33.3797C33.7987 27.3103 34.1383 27.6499 34.1383 28.0689C34.1383 28.4879 33.7987 28.8275 33.3797 28.8275Z" fill="#F29C1F"/>
<path fill-rule="evenodd" clip-rule="evenodd" d="M8.34469 28.8275H4.55159C4.13261 28.8275 3.79297 28.4879 3.79297 28.0689C3.79297 27.6499 4.13261 27.3103 4.55159 27.3103H8.34469C8.76367 27.3103 9.10331 27.6499 9.10331 28.0689C9.10331 28.4879 8.76367 28.8275 8.34469 28.8275Z" fill="#F29C1F"/>
<path d="M31.861 20.4827C32.6989 20.4827 33.3782 19.8034 33.3782 18.9655C33.3782 18.1275 32.6989 17.4482 31.861 17.4482C31.023 17.4482 30.3438 18.1275 30.3438 18.9655C30.3438 19.8034 31.023 20.4827 31.861 20.4827Z" fill="white"/>
<path d="M33.3782 5.31033C33.3782 4.47238 32.6989 3.79309 31.861 3.79309C31.023 3.79309 30.3438 4.47238 30.3438 5.31033V12.8965C30.3438 13.7345 31.023 14.4138 31.861 14.4138C32.6989 14.4138 33.3782 13.7345 33.3782 12.8965V5.31033Z" fill="white"/>
</g>
<defs>
<clipPath id="clip0_2576_21050">
<rect width="44" height="44" fill="white"/>
</clipPath>
</defs>
</svg>
