<svg width="1024" height="1024" viewBox="0 0 1024 1024" fill="none" xmlns="http://www.w3.org/2000/svg">
<rect width="1024" height="1024" fill="white"/>
<path fill-rule="evenodd" clip-rule="evenodd" d="M718.628 574.189C730.108 571.951 741.969 570.778 754.107 570.778C856.016 570.778 938.628 653.501 938.628 755.547C938.628 857.588 856.016 940.311 754.107 940.311C652.204 940.311 569.592 857.588 569.592 755.547C569.592 742.804 570.878 730.362 573.33 718.347C574.961 707.89 575.812 697.172 575.812 686.255C575.812 626.47 550.394 572.625 509.788 534.968V510.898H528.734C566.368 551.974 620.418 577.724 680.474 577.724C693.512 577.724 706.263 576.511 718.628 574.189ZM659.264 753.819C659.264 702.316 700.953 660.571 752.382 660.571C803.811 660.571 845.505 702.316 845.505 753.819C845.505 805.317 803.811 847.063 752.382 847.063C700.953 847.063 659.264 805.317 659.264 753.819Z" fill="#2E7AEB"/>
<path fill-rule="evenodd" clip-rule="evenodd" d="M300.821 447.637C289.38 449.86 277.563 451.024 265.47 451.024C163.566 451.024 80.9546 368.301 80.9546 266.257C80.9546 164.213 163.566 81.4902 265.47 81.4902C367.379 81.4902 449.99 164.213 449.99 266.257C449.99 278.989 448.705 291.421 446.253 303.428C444.621 313.893 443.77 324.619 443.77 335.543C443.77 395.333 469.188 449.177 509.795 486.833V510.901H490.849C453.214 469.827 399.164 444.078 339.108 444.078C326.026 444.078 313.225 445.3 300.821 447.637ZM360.318 267.984C360.318 319.483 318.624 361.231 267.195 361.231C215.767 361.231 174.077 319.483 174.077 267.984C174.077 216.486 215.767 174.737 267.195 174.737C318.624 174.737 360.318 216.486 360.318 267.984Z" fill="#F9AD2D"/>
<path fill-rule="evenodd" clip-rule="evenodd" d="M718.613 447.609C730.099 449.849 741.969 451.024 754.107 451.024C856.016 451.024 938.628 368.301 938.628 266.257C938.628 164.213 856.016 81.4902 754.107 81.4902C652.204 81.4902 569.592 164.213 569.592 266.257C569.592 279 570.878 291.442 573.33 303.459C574.961 313.914 575.812 324.63 575.812 335.543C575.812 395.332 550.394 449.176 509.788 486.831V510.901H528.739C566.368 469.827 620.418 444.078 680.474 444.078C693.507 444.078 706.253 445.29 718.613 447.609ZM659.264 267.984C659.264 319.483 700.953 361.231 752.382 361.231C803.811 361.231 845.505 319.483 845.505 267.984C845.505 216.486 803.811 174.737 752.382 174.737C700.953 174.737 659.264 216.486 659.264 267.984Z" fill="#00A34B"/>
<path fill-rule="evenodd" clip-rule="evenodd" d="M300.865 574.174C289.409 571.946 277.578 570.778 265.47 570.778C163.566 570.778 80.9546 653.501 80.9546 755.547C80.9546 857.588 163.566 940.311 265.47 940.311C367.379 940.311 449.99 857.588 449.99 755.547C449.99 742.813 448.705 730.382 446.257 718.376C444.621 707.91 443.77 697.182 443.77 686.255C443.77 626.47 469.188 572.625 509.795 534.967V510.898H490.849C453.214 551.974 399.164 577.724 339.108 577.724C326.041 577.724 313.26 576.506 300.865 574.174ZM360.318 753.819C360.318 702.316 318.624 660.571 267.195 660.571C215.767 660.571 174.077 702.316 174.077 753.819C174.077 805.317 215.767 847.063 267.195 847.063C318.624 847.063 360.318 805.317 360.318 753.819Z" fill="#FF0F1C"/>
<path d="M509.789 219.551C551.307 219.551 584.964 185.849 584.964 144.276C584.964 102.702 551.307 69 509.789 69C468.272 69 434.615 102.702 434.615 144.276C434.615 185.849 468.272 219.551 509.789 219.551Z" fill="#FF0F1C"/>
<path d="M509.789 954C551.307 954 584.964 920.298 584.964 878.725C584.964 837.151 551.307 803.449 509.789 803.449C468.272 803.449 434.615 837.151 434.615 878.725C434.615 920.298 468.272 954 509.789 954Z" fill="#00A34B"/>
<path d="M144.174 587.887C185.692 587.887 219.348 554.185 219.348 512.612C219.348 471.038 185.692 437.336 144.174 437.336C102.657 437.336 69 471.038 69 512.612C69 554.185 102.657 587.887 144.174 587.887Z" fill="#2E7AEB"/>
<path d="M878.826 587.887C920.344 587.887 954.001 554.185 954.001 512.612C954.001 471.038 920.344 437.336 878.826 437.336C837.309 437.336 803.652 471.038 803.652 512.612C803.652 554.185 837.309 587.887 878.826 587.887Z" fill="#F9AD2D"/>
</svg>
