<svg width="301" height="300" viewBox="0 0 301 300" fill="none" xmlns="http://www.w3.org/2000/svg">
<path fill-rule="evenodd" clip-rule="evenodd" d="M220.77 170.968C224.671 170.211 228.702 169.814 232.827 169.814C267.46 169.814 295.534 197.809 295.534 232.344C295.534 266.877 267.46 294.873 232.827 294.873C198.196 294.873 170.121 266.877 170.121 232.344C170.121 228.032 170.558 223.821 171.392 219.755C171.946 216.216 172.235 212.589 172.235 208.894C172.235 188.661 163.597 170.439 149.797 157.695V149.549H156.236C169.026 163.45 187.394 172.165 207.803 172.165C212.234 172.165 216.567 171.754 220.77 170.968ZM200.595 231.759C200.595 214.33 214.763 200.202 232.241 200.202C249.718 200.202 263.887 214.33 263.887 231.759C263.887 249.188 249.718 263.315 232.241 263.315C214.763 263.315 200.595 249.188 200.595 231.759Z" fill="white" fill-opacity="0.4"/>
<path fill-rule="evenodd" clip-rule="evenodd" d="M78.7817 128.14C74.8937 128.892 70.878 129.286 66.7682 129.286C32.1373 129.286 4.0625 101.29 4.0625 66.7562C4.0625 32.2221 32.1373 4.22675 66.7682 4.22675C101.401 4.22675 129.476 32.2221 129.476 66.7562C129.476 71.065 129.039 75.2722 128.205 79.3358C127.651 82.8774 127.362 86.5074 127.362 90.2043C127.362 110.439 136 128.661 149.799 141.404V149.55H143.361C130.571 135.649 112.203 126.935 91.7933 126.935C87.3475 126.935 82.9974 127.349 78.7817 128.14ZM99.0014 67.3408C99.0014 84.7692 84.8322 98.8976 67.3546 98.8976C49.877 98.8976 35.7094 84.7692 35.7094 67.3408C35.7094 49.9124 49.877 35.7838 67.3546 35.7838C84.8322 35.7838 99.0014 49.9124 99.0014 67.3408Z" fill="white" fill-opacity="0.4"/>
<path fill-rule="evenodd" clip-rule="evenodd" d="M220.765 128.13C224.668 128.888 228.702 129.286 232.827 129.286C267.46 129.286 295.534 101.29 295.534 66.7562C295.534 32.2221 267.46 4.22675 232.827 4.22675C198.196 4.22675 170.121 32.2221 170.121 66.7562C170.121 71.0687 170.558 75.2794 171.392 79.3462C171.946 82.8845 172.235 86.5109 172.235 90.2043C172.235 110.438 163.597 128.66 149.797 141.404V149.55H156.238C169.026 135.649 187.394 126.935 207.803 126.935C212.233 126.935 216.564 127.345 220.765 128.13ZM200.595 67.3408C200.595 84.7692 214.763 98.8976 232.241 98.8976C249.718 98.8976 263.887 84.7692 263.887 67.3408C263.887 49.9124 249.718 35.7838 232.241 35.7838C214.763 35.7838 200.595 49.9124 200.595 67.3408Z" fill="white" fill-opacity="0.4"/>
<path fill-rule="evenodd" clip-rule="evenodd" d="M78.7969 170.963C74.9038 170.209 70.883 169.814 66.7682 169.814C32.1373 169.814 4.0625 197.809 4.0625 232.344C4.0625 266.877 32.1373 294.873 66.7682 294.873C101.401 294.873 129.476 266.877 129.476 232.344C129.476 228.035 129.039 223.828 128.207 219.765C127.651 216.223 127.362 212.592 127.362 208.894C127.362 188.661 136 170.439 149.799 157.695V149.549H143.361C130.571 163.45 112.203 172.165 91.7933 172.165C87.3525 172.165 83.0092 171.752 78.7969 170.963ZM99.0014 231.759C99.0014 214.33 84.8322 200.202 67.3546 200.202C49.877 200.202 35.7094 214.33 35.7094 231.759C35.7094 249.188 49.877 263.315 67.3546 263.315C84.8322 263.315 99.0014 249.188 99.0014 231.759Z" fill="white" fill-opacity="0.4"/>
<path d="M149.797 50.9501C163.906 50.9501 175.344 39.5445 175.344 25.475C175.344 11.4056 163.906 0 149.797 0C135.688 0 124.25 11.4056 124.25 25.475C124.25 39.5445 135.688 50.9501 149.797 50.9501Z" fill="white" fill-opacity="0.4"/>
<path d="M149.797 299.505C163.906 299.505 175.344 288.099 175.344 274.03C175.344 259.96 163.906 248.555 149.797 248.555C135.688 248.555 124.25 259.96 124.25 274.03C124.25 288.099 135.688 299.505 149.797 299.505Z" fill="white" fill-opacity="0.4"/>
<path d="M25.5472 175.604C39.6565 175.604 51.0944 164.198 51.0944 150.129C51.0944 136.059 39.6565 124.654 25.5472 124.654C11.4378 124.654 0 136.059 0 150.129C0 164.198 11.4378 175.604 25.5472 175.604Z" fill="white" fill-opacity="0.4"/>
<path d="M275.211 175.604C289.32 175.604 300.758 164.198 300.758 150.129C300.758 136.059 289.32 124.654 275.211 124.654C261.101 124.654 249.664 136.059 249.664 150.129C249.664 164.198 261.101 175.604 275.211 175.604Z" fill="white" fill-opacity="0.4"/>
</svg>
