<svg width="54" height="54" viewBox="0 0 54 54" fill="none" xmlns="http://www.w3.org/2000/svg">
<path fill-rule="evenodd" clip-rule="evenodd" d="M39.6392 30.8249C40.3397 30.6884 41.0634 30.6168 41.804 30.6168C48.0222 30.6168 53.0628 35.6643 53.0628 41.8908C53.0628 48.117 48.0222 53.1644 41.804 53.1644C35.5862 53.1644 30.5455 48.117 30.5455 41.8908C30.5455 41.1132 30.624 40.3541 30.7736 39.6209C30.8732 38.9829 30.925 38.3289 30.925 37.6628C30.925 34.0149 29.3741 30.7295 26.8965 28.4318V26.9631H28.0525C30.3488 29.4694 33.6468 31.0406 37.3112 31.0406C38.1067 31.0406 38.8847 30.9666 39.6392 30.8249ZM36.017 41.7853C36.017 38.6428 38.5607 36.0956 41.6988 36.0956C44.8368 36.0956 47.3808 38.6428 47.3808 41.7853C47.3808 44.9276 44.8368 47.4747 41.6988 47.4747C38.5607 47.4747 36.017 44.9276 36.017 41.7853Z" fill="#2E7AEB"/>
<path fill-rule="evenodd" clip-rule="evenodd" d="M14.1459 23.1031C13.4479 23.2387 12.7269 23.3098 11.989 23.3098C5.77115 23.3098 0.730469 18.2623 0.730469 12.0359C0.730469 5.80956 5.77115 0.7621 11.989 0.7621C18.2071 0.7621 23.2478 5.80956 23.2478 12.0359C23.2478 12.8128 23.1693 13.5713 23.0197 14.304C22.9201 14.9425 22.8683 15.597 22.8683 16.2635C22.8683 19.9117 24.4192 23.1971 26.8968 25.4947V26.9633H25.7408C23.4445 24.4571 20.1465 22.886 16.4821 22.886C15.6839 22.886 14.9028 22.9606 14.1459 23.1031ZM17.7763 12.1413C17.7763 15.2836 15.2323 17.8309 12.0943 17.8309C8.95623 17.8309 6.41251 15.2836 6.41251 12.1413C6.41251 8.99906 8.95623 6.45173 12.0943 6.45173C15.2323 6.45173 17.7763 8.99906 17.7763 12.1413Z" fill="#F9AD2D"/>
<path fill-rule="evenodd" clip-rule="evenodd" d="M39.6383 23.1014C40.3391 23.2381 41.0634 23.3098 41.804 23.3098C48.0222 23.3098 53.0628 18.2623 53.0628 12.0359C53.0628 5.80956 48.0222 0.7621 41.804 0.7621C35.5862 0.7621 30.5455 5.80956 30.5455 12.0359C30.5455 12.8135 30.624 13.5726 30.7736 14.3059C30.8732 14.9438 30.925 15.5976 30.925 16.2635C30.925 19.9117 29.3741 23.197 26.8965 25.4946V26.9633H28.0528C30.3489 24.4571 33.6468 22.8859 37.3112 22.8859C38.1064 22.8859 38.8841 22.9599 39.6383 23.1014ZM36.017 12.1413C36.017 15.2836 38.5607 17.8309 41.6988 17.8309C44.8368 17.8309 47.3808 15.2836 47.3808 12.1413C47.3808 8.99906 44.8368 6.45173 41.6988 6.45173C38.5607 6.45173 36.017 8.99906 36.017 12.1413Z" fill="#00A34B"/>
<path fill-rule="evenodd" clip-rule="evenodd" d="M14.1487 30.824C13.4497 30.6881 12.7278 30.6168 11.989 30.6168C5.77115 30.6168 0.730469 35.6643 0.730469 41.8908C0.730469 48.117 5.77115 53.1644 11.989 53.1644C18.2071 53.1644 23.2478 48.117 23.2478 41.8908C23.2478 41.1138 23.1693 40.3553 23.02 39.6227C22.9201 38.9841 22.8683 38.3295 22.8683 37.6628C22.8683 34.0149 24.4192 30.7295 26.8968 28.4317V26.9631H25.7408C23.4445 29.4694 20.1465 31.0406 16.4821 31.0406C15.6848 31.0406 14.905 30.9663 14.1487 30.824ZM17.7763 41.7853C17.7763 38.6428 15.2323 36.0956 12.0943 36.0956C8.95623 36.0956 6.41251 38.6428 6.41251 41.7853C6.41251 44.9276 8.95623 47.4747 12.0943 47.4747C15.2323 47.4747 17.7763 44.9276 17.7763 41.7853Z" fill="#FF0F1C"/>
<path d="M26.8955 9.18611C29.4287 9.18611 31.4823 7.12973 31.4823 4.59305C31.4823 2.05638 29.4287 0 26.8955 0C24.3622 0 22.3086 2.05638 22.3086 4.59305C22.3086 7.12973 24.3622 9.18611 26.8955 9.18611Z" fill="#FF0F1C"/>
<path d="M26.8955 53.9997C29.4287 53.9997 31.4823 51.9433 31.4823 49.4066C31.4823 46.8699 29.4287 44.8136 26.8955 44.8136C24.3622 44.8136 22.3086 46.8699 22.3086 49.4066C22.3086 51.9433 24.3622 53.9997 26.8955 53.9997Z" fill="#00A34B"/>
<path d="M4.58687 31.6607C7.12013 31.6607 9.17374 29.6044 9.17374 27.0677C9.17374 24.531 7.12013 22.4746 4.58687 22.4746C2.05361 22.4746 0 24.531 0 27.0677C0 29.6044 2.05361 31.6607 4.58687 31.6607Z" fill="#2E7AEB"/>
<path d="M49.413 31.6607C51.9463 31.6607 53.9999 29.6044 53.9999 27.0677C53.9999 24.531 51.9463 22.4746 49.413 22.4746C46.8798 22.4746 44.8262 24.531 44.8262 27.0677C44.8262 29.6044 46.8798 31.6607 49.413 31.6607Z" fill="#F9AD2D"/>
</svg>
