<svg width="50" height="44" viewBox="0 0 50 44" fill="none" xmlns="http://www.w3.org/2000/svg">
<path d="M45.7473 4.41116C39.8657 -1.47039 30.7392 -1.47039 25.0605 4.41116C19.3817 -1.26758 10.0524 -1.26758 4.37361 4.41116C-1.10231 9.88709 -1.50794 18.4052 3.56237 24.2868C6.19892 27.3289 8.83548 29.9655 11.6749 32.6021C12.8917 31.9936 14.5142 31.3852 15.9339 30.5739C15.9339 30.5739 22.0183 27.9374 25.8717 22.2586C21.0042 25.7064 16.3395 27.1261 14.3114 27.5317C13.5002 24.4896 14.1086 21.2446 16.3395 19.0136C19.3817 15.9715 28.1026 15.1602 31.1448 10.2927C31.5504 9.68428 32.3617 9.68428 32.7673 10.2927C34.187 13.5377 36.6207 21.2446 31.3476 29.1542C28.7111 33.2105 22.8295 35.0358 18.5705 32.8049C17.1508 33.8189 15.7311 34.833 14.717 35.4414C17.962 38.2808 21.4098 40.9174 25.0605 43.3511C33.3758 38.078 40.4742 31.588 46.7614 24.2868C51.426 18.4052 51.0204 9.88709 45.7473 4.41116Z" fill="#FD6A7E"/>
</svg>
