<svg width="885" height="885" viewBox="0 0 885 885" fill="none" xmlns="http://www.w3.org/2000/svg">
<path fill-rule="evenodd" clip-rule="evenodd" d="M649.628 505.189C661.108 502.951 672.969 501.778 685.107 501.778C787.016 501.778 869.628 584.501 869.628 686.547C869.628 788.588 787.016 871.311 685.107 871.311C583.204 871.311 500.592 788.588 500.592 686.547C500.592 673.804 501.878 661.362 504.33 649.347C505.961 638.89 506.812 628.172 506.812 617.255C506.812 557.47 481.394 503.625 440.788 465.968V441.898H459.734C497.368 482.974 551.418 508.724 611.474 508.724C624.512 508.724 637.263 507.511 649.628 505.189ZM590.264 684.819C590.264 633.316 631.953 591.571 683.382 591.571C734.811 591.571 776.505 633.316 776.505 684.819C776.505 736.317 734.811 778.063 683.382 778.063C631.953 778.063 590.264 736.317 590.264 684.819Z" fill="#2E7AEB"/>
<path fill-rule="evenodd" clip-rule="evenodd" d="M231.821 378.637C220.38 380.86 208.563 382.024 196.47 382.024C94.5663 382.024 11.9546 299.301 11.9546 197.257C11.9546 95.213 94.5663 12.4902 196.47 12.4902C298.379 12.4902 380.99 95.213 380.99 197.257C380.99 209.989 379.705 222.421 377.253 234.428C375.621 244.893 374.77 255.619 374.77 266.543C374.77 326.333 400.188 380.177 440.795 417.833V441.901H421.849C384.214 400.827 330.164 375.078 270.108 375.078C257.026 375.078 244.225 376.3 231.821 378.637ZM291.318 198.984C291.318 250.483 249.624 292.231 198.195 292.231C146.767 292.231 105.077 250.483 105.077 198.984C105.077 147.486 146.767 105.737 198.195 105.737C249.624 105.737 291.318 147.486 291.318 198.984Z" fill="#F9AD2D"/>
<path fill-rule="evenodd" clip-rule="evenodd" d="M649.613 378.609C661.099 380.849 672.969 382.024 685.107 382.024C787.016 382.024 869.628 299.301 869.628 197.257C869.628 95.213 787.016 12.4902 685.107 12.4902C583.204 12.4902 500.592 95.213 500.592 197.257C500.592 210 501.878 222.442 504.33 234.459C505.961 244.914 506.812 255.63 506.812 266.543C506.812 326.332 481.394 380.176 440.788 417.831V441.901H459.739C497.368 400.827 551.418 375.078 611.474 375.078C624.507 375.078 637.253 376.29 649.613 378.609ZM590.264 198.984C590.264 250.483 631.953 292.231 683.382 292.231C734.811 292.231 776.505 250.483 776.505 198.984C776.505 147.486 734.811 105.737 683.382 105.737C631.953 105.737 590.264 147.486 590.264 198.984Z" fill="#00A34B"/>
<path fill-rule="evenodd" clip-rule="evenodd" d="M231.865 505.174C220.409 502.946 208.578 501.778 196.47 501.778C94.5663 501.778 11.9546 584.501 11.9546 686.547C11.9546 788.588 94.5663 871.311 196.47 871.311C298.379 871.311 380.99 788.588 380.99 686.547C380.99 673.813 379.705 661.382 377.257 649.376C375.621 638.91 374.77 628.182 374.77 617.255C374.77 557.47 400.188 503.625 440.795 465.967V441.898H421.849C384.214 482.974 330.164 508.724 270.108 508.724C257.041 508.724 244.26 507.506 231.865 505.174ZM291.318 684.819C291.318 633.316 249.624 591.571 198.195 591.571C146.767 591.571 105.077 633.316 105.077 684.819C105.077 736.317 146.767 778.063 198.195 778.063C249.624 778.063 291.318 736.317 291.318 684.819Z" fill="#FF0F1C"/>
<path d="M440.789 150.551C482.307 150.551 515.964 116.849 515.964 75.2755C515.964 33.702 482.307 0 440.789 0C399.272 0 365.615 33.702 365.615 75.2755C365.615 116.849 399.272 150.551 440.789 150.551Z" fill="#FF0F1C"/>
<path d="M440.789 885C482.307 885 515.964 851.298 515.964 809.725C515.964 768.151 482.307 734.449 440.789 734.449C399.272 734.449 365.615 768.151 365.615 809.725C365.615 851.298 399.272 885 440.789 885Z" fill="#00A34B"/>
<path d="M75.1741 518.887C116.692 518.887 150.348 485.185 150.348 443.612C150.348 402.038 116.692 368.336 75.1741 368.336C33.6565 368.336 0 402.038 0 443.612C0 485.185 33.6565 518.887 75.1741 518.887Z" fill="#2E7AEB"/>
<path d="M809.826 518.887C851.344 518.887 885.001 485.185 885.001 443.612C885.001 402.038 851.344 368.336 809.826 368.336C768.309 368.336 734.652 402.038 734.652 443.612C734.652 485.185 768.309 518.887 809.826 518.887Z" fill="#F9AD2D"/>
</svg>
