<svg width="19" height="21" viewBox="0 0 19 21" fill="none" xmlns="http://www.w3.org/2000/svg">
<path d="M16.7712 12.3988L16.3906 12.0925C16.2883 12.0106 16.2057 11.9067 16.1489 11.7886C16.0921 11.6705 16.0626 11.5411 16.0625 11.41V7.875C16.062 6.35586 15.5345 4.88395 14.5699 3.71033C13.6053 2.53671 12.2634 1.73409 10.7731 1.43938C10.7005 1.15754 10.5362 0.907852 10.3061 0.729578C10.076 0.551304 9.79324 0.454559 9.50219 0.454559C9.21113 0.454559 8.92833 0.551304 8.69827 0.729578C8.4682 0.907852 8.30392 1.15754 8.23125 1.43938C6.74016 1.7332 5.39727 2.53543 4.43182 3.70914C3.46637 4.88284 2.93821 6.35524 2.9375 7.875V11.41C2.93742 11.5411 2.90789 11.6705 2.8511 11.7886C2.7943 11.9067 2.71169 12.0106 2.60938 12.0925L2.22875 12.3988C1.76906 12.7663 1.3976 13.2321 1.14169 13.7621C0.885786 14.2921 0.75194 14.8727 0.75 15.4613V16.1875C0.75 16.6516 0.934374 17.0968 1.26256 17.4249C1.59075 17.7531 2.03587 17.9375 2.5 17.9375H6.11375C6.31098 18.6846 6.74988 19.3454 7.36202 19.8169C7.97416 20.2884 8.72513 20.5441 9.49781 20.5441C10.2705 20.5441 11.0215 20.2884 11.6336 19.8169C12.2457 19.3454 12.6846 18.6846 12.8819 17.9375H16.5C16.9641 17.9375 17.4092 17.7531 17.7374 17.4249C18.0656 17.0968 18.25 16.6516 18.25 16.1875V15.47C18.2494 14.88 18.1162 14.2977 17.8602 13.7661C17.6042 13.2345 17.2321 12.7672 16.7712 12.3988ZM9.5 18.8125C9.1946 18.8107 8.895 18.7289 8.63098 18.5754C8.36695 18.4219 8.1477 18.202 7.995 17.9375H11.0094C10.8563 18.2026 10.6364 18.423 10.3715 18.5765C10.1066 18.7301 9.80614 18.8114 9.5 18.8125ZM16.5 16.1875H2.5V15.47C2.50047 15.1421 2.57463 14.8186 2.717 14.5232C2.85936 14.2279 3.0663 13.9683 3.3225 13.7638L3.70312 13.4575C4.01008 13.2117 4.25791 12.9002 4.42829 12.5458C4.59867 12.1914 4.68725 11.8032 4.6875 11.41V7.875C4.6875 6.59865 5.19453 5.37457 6.09705 4.47205C6.99957 3.56953 8.22365 3.0625 9.5 3.0625C10.7764 3.0625 12.0004 3.56953 12.903 4.47205C13.8055 5.37457 14.3125 6.59865 14.3125 7.875V11.41C14.3121 11.804 14.4004 12.193 14.5708 12.5482C14.7412 12.9034 14.9893 13.2157 15.2969 13.4619L15.6775 13.7681C15.9331 13.9723 16.1397 14.2311 16.2821 14.5256C16.4244 14.8202 16.4989 15.1429 16.5 15.47V16.1875Z" fill="#476EA4"/>
</svg>
