<svg width="44" height="44" viewBox="0 0 44 44" fill="none" xmlns="http://www.w3.org/2000/svg">
<g clip-path="url(#clip0_2577_21081)">
<path d="M43.5825 23.7608C44.1391 22.6582 44.1391 21.3418 43.5825 20.2392L43.0061 19.0974C42.8804 18.8485 42.8365 18.5714 42.879 18.2957L43.0744 17.0317C43.2631 15.8112 42.8563 14.5591 41.9861 13.6826L41.0852 12.7748C40.8887 12.5769 40.7613 12.3268 40.7167 12.0515L40.5119 10.789C40.3163 9.58336 39.5575 8.52848 38.4785 7.9591L37.37 7.30532C37.3485 7.29269 37.3267 7.28065 37.3046 7.26931C37.0566 7.14185 36.8582 6.94341 36.7307 6.69537L36.1458 5.55798C35.5943 4.48539 34.4697 3.69221 33.2109 3.48801L31.9484 3.28329C31.6731 3.23859 31.423 3.11122 31.2251 2.91484L30.3174 2.01371C29.4408 1.14361 28.189 0.737093 26.9683 0.925483L25.7043 1.12084C25.4285 1.16346 25.1514 1.11955 24.9025 0.993895L23.7607 0.417465C22.6582 -0.139112 21.3418 -0.139198 20.2393 0.417465L19.0975 0.993895C18.8487 1.11946 18.5716 1.16329 18.2958 1.12092L17.0318 0.925569C15.811 0.736749 14.5592 1.1437 13.6826 2.0138L12.7748 2.91476C12.577 3.11122 12.3269 3.23859 12.0516 3.28329L10.789 3.48801C9.53022 3.69221 8.40563 4.48531 7.85413 5.55798L7.26928 6.69537C7.14173 6.94332 6.94329 7.14185 6.69525 7.26931L5.55778 7.85425C4.48519 8.40575 3.69201 9.53034 3.48789 10.7891L3.28308 12.0517C3.23848 12.327 3.11102 12.577 2.91455 12.7749L2.01368 13.6827C1.14358 14.5592 0.736803 15.8112 0.925451 17.0317L1.12089 18.2958C1.16352 18.5714 1.1196 18.8485 0.993863 19.0974L0.417433 20.2392C-0.139144 21.3417 -0.139144 22.6581 0.417433 23.7607L0.993863 24.9025C1.11951 25.1514 1.16343 25.4285 1.12089 25.7042L0.925451 26.9682C0.736803 28.1888 1.14366 29.4408 2.01368 30.3173L2.91472 31.2251C3.11119 31.4231 3.23865 31.6731 3.28325 31.9485L3.48806 33.2109C3.69218 34.4697 4.48536 35.5943 5.55795 36.1458L6.69534 36.7307C6.94337 36.8582 7.14182 37.0567 7.26936 37.3047L7.85421 38.4422C8.40581 39.5148 9.53039 40.3079 10.7891 40.5121L12.0517 40.7169C12.3269 40.7616 12.577 40.8889 12.7749 41.0853L13.6827 41.9864C14.5594 42.8565 15.8113 43.2631 17.0318 43.0746L18.2959 42.8791C18.5713 42.8365 18.8487 42.8805 19.0975 43.0062L20.2393 43.5826C20.7906 43.8609 21.3953 44 22 44C22.6048 44 23.2095 43.8609 23.7607 43.5826L24.9025 43.0062C25.1514 42.8805 25.4288 42.8367 25.7042 42.8791L26.9682 43.0745C28.1888 43.2631 29.4407 42.8564 30.3174 41.9863L31.2251 41.0852C31.423 40.8888 31.6731 40.7614 31.9484 40.7167L33.2109 40.5119C34.4165 40.3164 35.4715 39.5576 36.0408 38.4784L36.6946 37.3699C36.7073 37.3484 36.7193 37.3267 36.7306 37.3045C36.8581 37.0566 37.0566 36.8581 37.3046 36.7306L38.442 36.1457C39.5403 35.581 40.3142 34.516 40.5119 33.2968L40.7167 32.0343C40.7614 31.759 40.8887 31.5089 41.0852 31.311C41.0989 31.2973 42.0088 30.2945 42.0088 30.2945C42.8633 29.419 43.2615 28.1782 43.0744 26.9682L42.879 25.7042C42.8364 25.4286 42.8803 25.1514 43.006 24.9025L43.5825 23.7608Z" fill="url(#paint0_linear_2577_21081)"/>
<path d="M22.0013 6.44409C13.4609 6.44409 6.44531 13.4616 6.44531 22.0001C6.44531 30.5405 13.4628 37.556 22.0013 37.556C30.5417 37.556 37.5572 30.5386 37.5572 22.0001C37.5572 13.4597 30.5397 6.44409 22.0013 6.44409ZM30.9869 18.4452L28.4086 28.7586C28.2652 29.3324 27.7495 29.7351 27.1579 29.7351H16.8446C16.253 29.7351 15.7374 29.3324 15.5939 28.7586L13.0156 18.4452C12.8637 17.8377 13.1705 17.2088 13.7428 16.9544C14.315 16.7001 14.9873 16.8939 15.3365 17.4138C15.6893 17.9324 16.9655 19.4217 18.1338 19.4217C18.3473 19.4217 19.0087 18.9248 19.6901 17.3886C20.3014 16.0105 20.7121 14.2372 20.7121 12.9759C20.7121 12.2639 21.2893 11.6867 22.0013 11.6867C22.7132 11.6867 23.2904 12.2639 23.2904 12.9759C23.2904 14.2372 23.7012 16.0105 24.3125 17.3886C24.9939 18.9248 25.6553 19.4217 25.8688 19.4217C27.0717 19.4217 28.3812 17.8379 28.666 17.4138C29.0152 16.894 29.6876 16.7002 30.2598 16.9544C30.8321 17.2088 31.1388 17.8377 30.9869 18.4452Z" fill="url(#paint1_linear_2577_21081)"/>
</g>
<defs>
<linearGradient id="paint0_linear_2577_21081" x1="22" y1="44" x2="22" y2="3.14713e-05" gradientUnits="userSpaceOnUse">
<stop stop-color="#FD5900"/>
<stop offset="1" stop-color="#FFDE00"/>
</linearGradient>
<linearGradient id="paint1_linear_2577_21081" x1="22.0013" y1="37.556" x2="22.0013" y2="6.44409" gradientUnits="userSpaceOnUse">
<stop stop-color="#FFE59A"/>
<stop offset="1" stop-color="#FFFFD5"/>
</linearGradient>
<clipPath id="clip0_2577_21081">
<rect width="44" height="44" fill="white"/>
</clipPath>
</defs>
</svg>
