<svg width="50" height="50" viewBox="0 0 50 50" fill="none" xmlns="http://www.w3.org/2000/svg">
<path d="M27.7148 10.9658L22.2871 10.9648C14.8018 11.8135 8.59668 16.8965 6.12891 23.7588C18.6245 27.0795 31.2022 27.2201 43.873 23.7588C41.4043 16.8955 35.2012 11.8145 27.7148 10.9658Z" fill="#FAF0AF"/>
<path d="M45.9356 27.1973C31.2926 24.947 17.3176 24.8903 4.0625 27.1973C5.15068 36.2724 4.82646 33.5681 4.88867 34.0869C5.5 38.668 9.4082 42.0899 14.0303 42.0899L25.3408 43.8965L35.9678 42.0899C40.5898 42.0899 44.498 38.668 45.1094 34.0869C45.1716 33.5681 44.8473 36.2724 45.9356 27.1973Z" fill="#F2D137"/>
<path d="M25 12.793C26.618 12.793 27.9297 11.4813 27.9297 9.86328C27.9297 8.24526 26.618 6.93359 25 6.93359C23.382 6.93359 22.0703 8.24526 22.0703 9.86328C22.0703 11.4813 23.382 12.793 25 12.793Z" fill="#DD5113"/>
<path d="M48.9258 24.9766C48.9258 25.8506 48.3291 26.6113 47.4795 26.8193C47.2189 26.8831 48.4221 26.5887 44.9375 27.4414C42.3184 28.083 39.582 28.083 36.9629 27.4414C36.6801 27.39 35.1619 26.96 32.9746 26.96C31.6357 26.96 30.2969 27.1211 28.9873 27.4414C26.3629 28.0833 23.6381 28.0833 21.0117 27.4414C18.3877 26.7996 15.6615 26.7995 13.0371 27.4414C10.417 28.083 7.68164 28.083 5.06152 27.4414C1.57793 26.589 2.78037 26.8832 2.51953 26.8193C1.67158 26.6103 1.07422 25.8516 1.07422 24.9766C1.07422 23.7461 2.22754 22.8408 3.42285 23.1338C4.85137 23.4761 5.28594 23.6115 6.12793 23.7588C8.34668 24.1532 10.6952 24.1075 13.0371 23.5352C15.6611 22.8934 18.3873 22.8933 21.0117 23.5352C23.6362 24.1767 26.361 24.1775 28.9873 23.5352C31.6064 22.8936 34.3428 22.8936 36.9619 23.5352C37.3233 23.5805 40.5827 24.5937 44.9375 23.5352L46.5771 23.1338C46.7305 23.0967 46.8828 23.0781 47.0322 23.0781C48.0488 23.0781 48.9258 23.9043 48.9258 24.9766Z" fill="#EBAE37"/>
<path d="M48.9258 42.0898C48.9258 44.7851 46.7384 46.9727 44.043 46.9727H5.95703C3.26074 46.9727 1.07422 44.7861 1.07422 42.0898C3.54404 42.0898 46.4228 42.0898 48.9258 42.0898Z" fill="#95C7EE"/>
<path d="M25.0586 20.6055C25.5979 20.6055 26.0352 20.1682 26.0352 19.6289V16.6992C26.0352 16.16 25.5979 15.7227 25.0586 15.7227C24.5193 15.7227 24.082 16.16 24.082 16.6992V19.6289C24.082 20.1682 24.5193 20.6055 25.0586 20.6055Z" fill="black"/>
<path d="M30.6564 19.8904C31.0379 20.2717 31.6559 20.2718 32.0376 19.8904C32.4189 19.5091 32.4189 18.8907 32.0376 18.5093L29.966 16.4377C29.5845 16.0564 28.9664 16.0564 28.5848 16.4377C28.2035 16.819 28.2035 17.4374 28.5848 17.8188L30.6564 19.8904Z" fill="black"/>
<path d="M19.3429 19.8904L21.4145 17.8188C21.7959 17.4375 21.7959 16.8191 21.4145 16.4377C21.0331 16.0564 20.4149 16.0564 20.0334 16.4377L17.9618 18.5093C17.5804 18.8906 17.5804 19.509 17.9618 19.8904C18.3433 20.2717 18.9614 20.2718 19.3429 19.8904Z" fill="black"/>
<path d="M48.9258 41.1133H41.9702C44.1579 39.5194 45.6975 37.0697 46.078 34.2156L46.9117 27.9635L47.7123 27.7675C49.0017 27.4516 49.9023 26.3039 49.9023 24.9763C49.9023 23.1106 48.1542 21.7421 46.3452 22.1852C45.0943 22.4897 44.9374 22.5332 44.4868 22.6367C41.8361 16.1305 35.9618 11.3276 28.8949 10.1458C29.0311 8.25049 27.8024 6.61348 26.094 6.11416C26.4495 4.89639 27.5753 4.00391 28.9062 4.00391C29.4455 4.00391 29.8828 3.5666 29.8828 3.02734C29.8828 2.48809 29.4455 2.05078 28.9062 2.05078C26.5113 2.05078 24.5151 3.78428 24.1028 6.06221C22.2791 6.49268 20.965 8.19209 21.105 10.1449C14.0393 11.327 8.16348 16.1309 5.51318 22.6368C5.09238 22.5402 4.8501 22.4764 3.65488 22.1853C1.8457 21.7421 0.0976562 23.1105 0.0976562 24.9764C0.0976562 26.3039 0.998242 27.4517 2.2877 27.7675L3.08838 27.9636L3.92197 34.2156C4.30303 37.0735 5.84395 39.521 8.03018 41.1133H1.07422C0.534961 41.1133 0.0976562 41.5506 0.0976562 42.0898C0.0976562 45.3207 2.72617 47.9492 5.95703 47.9492H44.043C47.2738 47.9492 49.9023 45.3207 49.9023 42.0898C49.9023 41.5506 49.465 41.1133 48.9258 41.1133ZM25 7.91016C26.077 7.91016 26.9531 8.78633 26.9531 9.86328C26.9531 10.9402 26.077 11.8164 25 11.8164C23.923 11.8164 23.0469 10.9402 23.0469 9.86328C23.0469 8.78633 23.923 7.91016 25 7.91016ZM21.7459 12.021C22.4464 13.0739 23.6433 13.7695 25 13.7695C26.3563 13.7695 27.553 13.0743 28.2536 12.0218C34.5296 12.9646 39.9653 17.1542 42.5033 22.9604C40.7298 23.1346 38.9276 23.0109 37.1952 22.5867C34.3469 21.8992 31.4689 21.922 28.7545 22.5866C26.2979 23.1882 23.7008 23.1882 21.2441 22.5866C18.4837 21.9104 15.5654 21.9104 12.8044 22.5866C11.0721 23.0108 9.27012 23.1345 7.49658 22.9604C10.0343 17.1541 15.4697 12.9641 21.7459 12.021ZM2.05078 24.9764C2.05078 24.3788 2.61035 23.9407 3.19023 24.0823C4.96055 24.5048 8.48096 25.6564 13.2691 24.4837C15.7258 23.8821 18.3229 23.8821 20.7795 24.4837C23.5402 25.1598 26.4584 25.1599 29.2195 24.4836C31.6761 23.882 34.2732 23.8821 36.7296 24.4836C41.2784 25.6208 44.6652 24.6073 46.8098 24.0822C47.3904 23.9402 47.9492 24.3798 47.9492 24.9763C47.9492 25.4016 47.6607 25.7692 47.2477 25.8704L44.7051 26.493C42.2486 27.0945 39.6517 27.0945 37.1952 26.493C34.3491 25.806 31.4712 25.8276 28.7545 26.4929C26.2979 27.0944 23.7008 27.0944 21.2441 26.4929C18.4837 25.8167 15.5654 25.8167 12.8044 26.4929C10.3478 27.0944 7.75068 27.0944 5.29404 26.4929L2.75234 25.8704C2.33926 25.7692 2.05078 25.4016 2.05078 24.9764ZM5.85791 33.9576L5.12451 28.4575C7.79756 29.0634 10.6064 29.0421 13.269 28.3899C15.7257 27.7884 18.3228 27.7884 20.7794 28.3899C23.5401 29.0661 26.4583 29.066 29.2194 28.3898C31.676 27.7884 34.2731 27.7884 36.7295 28.3898C39.2355 29.0164 42.0965 29.0864 44.8754 28.4571L44.142 33.9576C43.5981 38.037 40.0845 41.1133 35.9689 41.1133H14.0311C9.91553 41.1133 6.40186 38.037 5.85791 33.9576ZM44.043 45.9961H5.95703C4.14023 45.9961 2.60908 44.7493 2.17441 43.0664H14.0311H35.969H47.8257C47.3909 44.7493 45.8598 45.9961 44.043 45.9961Z" fill="black"/>
</svg>
