<svg width="19" height="20" viewBox="0 0 19 20" fill="none" xmlns="http://www.w3.org/2000/svg">
<path fill-rule="evenodd" clip-rule="evenodd" d="M10.841 1.36104C9.90972 0.574966 8.54732 0.574967 7.616 1.36104L6.76784 2.07692C6.372 2.41102 5.88217 2.61394 5.36602 2.65759L4.26007 2.75111C3.04569 2.85381 2.08233 3.81717 1.97963 5.03155L1.8861 6.1375C1.84245 6.65365 1.63954 7.14349 1.30544 7.53934L0.589553 8.38749C-0.196518 9.3188 -0.196517 10.6812 0.589553 11.6125L1.30544 12.4607C1.63954 12.8565 1.84245 13.3464 1.8861 13.8625L1.97963 14.9685C2.08233 16.1829 3.04569 17.1462 4.26007 17.2489L5.36602 17.3424C5.88217 17.3861 6.372 17.589 6.76785 17.9231L7.616 18.639C8.54732 19.425 9.90972 19.425 10.841 18.639L11.6892 17.9231C12.085 17.589 12.5749 17.3861 13.091 17.3424L14.197 17.2489C15.4114 17.1462 16.3748 16.1829 16.4774 14.9685L16.5709 13.8625C16.6146 13.3464 16.8175 12.8565 17.1516 12.4607L17.8675 11.6125C18.6535 10.6812 18.6535 9.3188 17.8675 8.38749L17.1516 7.53932C16.8175 7.14349 16.6146 6.65365 16.5709 6.1375L16.4774 5.03155C16.3748 3.81717 15.4114 2.85381 14.197 2.75111L13.091 2.65759C12.5749 2.61394 12.085 2.41102 11.6892 2.07692L10.841 1.36104ZM13.7745 8.29555C14.2139 7.85621 14.2139 7.1439 13.7745 6.70456C13.3353 6.26521 12.6229 6.26521 12.1835 6.70456L7.97905 10.9091L6.27455 9.20456C5.83522 8.76521 5.1229 8.76521 4.68357 9.20456C4.24422 9.6439 4.24422 10.3562 4.68357 10.7956L7.18357 13.2955C7.6229 13.7349 8.33522 13.7349 8.77455 13.2955L13.7745 8.29555Z" fill="#3ED37A"/>
</svg>
