<svg width="15" height="17" viewBox="0 0 15 17" fill="none" xmlns="http://www.w3.org/2000/svg">
<g clip-path="url(#clip0_940_17967)">
<path d="M14.4643 2.65625H11.706L10.5676 0.771973C10.2489 0.293084 9.7567 0 9.1942 0H5.8058C5.2433 0 4.72098 0.293084 4.43304 0.771973L3.29397 2.65625H0.535714C0.23856 2.65625 0 2.89299 0 3.1875V3.71875C0 4.01426 0.23856 4.25 0.535714 4.25H1.07143V14.875C1.07143 16.0487 2.03069 17 3.21429 17H11.7857C12.9693 17 13.9286 16.0487 13.9286 14.875V4.25H14.4643C14.7623 4.25 15 4.01426 15 3.71875V3.1875C15 2.89299 14.7623 2.65625 14.4643 2.65625ZM5.75558 1.68938C5.78906 1.63127 5.85603 1.59375 5.92634 1.59375H9.07366C9.14481 1.59375 9.21177 1.6311 9.24526 1.68921L9.83036 2.65625H5.16964L5.75558 1.68938ZM11.7857 15.4062H3.21429C2.9184 15.4062 2.67857 15.1684 2.67857 14.875V4.25H12.3214V14.875C12.3214 15.1672 12.0804 15.4062 11.7857 15.4062ZM7.5 13.8125C7.79612 13.8125 8.03571 13.5749 8.03571 13.2812V6.375C8.03571 6.08135 7.79612 5.84375 7.5 5.84375C7.20388 5.84375 6.96429 6.08281 6.96429 6.375V13.2812C6.96429 13.5734 7.20536 13.8125 7.5 13.8125ZM4.82143 13.8125C5.11607 13.8125 5.35714 13.5734 5.35714 13.2812V6.375C5.35714 6.08135 5.11754 5.84375 4.82143 5.84375C4.52531 5.84375 4.28571 6.08281 4.28571 6.375V13.2812C4.28571 13.5734 4.52679 13.8125 4.82143 13.8125ZM10.1786 13.8125C10.4747 13.8125 10.7143 13.5749 10.7143 13.2812V6.375C10.7143 6.08135 10.4747 5.84375 10.1786 5.84375C9.88245 5.84375 9.64286 6.08281 9.64286 6.375V13.2812C9.64286 13.5734 9.88393 13.8125 10.1786 13.8125Z" fill="#999999"/>
</g>
<defs>
<clipPath id="clip0_940_17967">
<rect width="15" height="17" fill="white"/>
</clipPath>
</defs>
</svg>
