<svg width="32" height="22" viewBox="0 0 32 22" fill="none" xmlns="http://www.w3.org/2000/svg">
<path fill-rule="evenodd" clip-rule="evenodd" d="M25.8 8.38668C24.8933 3.78668 20.8533 0.333344 16 0.333344C12.1467 0.333344 8.8 2.52001 7.13333 5.72001C3.12 6.14668 0 9.54668 0 13.6667C0 18.08 3.58667 21.6667 8 21.6667H25.3333C29.0133 21.6667 32 18.68 32 15C32 11.48 29.2667 8.62668 25.8 8.38668ZM25.3333 19H8C5.05333 19 2.66667 16.6133 2.66667 13.6667C2.66667 10.9333 4.70667 8.65335 7.41333 8.37335L8.84 8.22668L9.50667 6.96002C10.7733 4.52002 13.2533 3.00002 16 3.00002C19.4933 3.00002 22.5067 5.48002 23.1867 8.90668L23.5867 10.9067L25.6267 11.0533C27.7067 11.1867 29.3333 12.9333 29.3333 15C29.3333 17.2 27.5333 19 25.3333 19ZM14.0667 12.3333H10.6667L16 7.00002L21.3333 12.3333H17.9333V16.3333H14.0667V12.3333Z" fill="#005693"/>
</svg>
